<mxfile host="app.diagrams.net" modified="2020-04-26T11:52:40.666Z" agent="5.0 (Macintosh; Intel Mac OS X 10_15_3) AppleWebKit/537.36 (KHTML, like Gecko) Chrome/81.0.4044.122 Safari/537.36" etag="riKD66WEZ49OpCnRwZkT" version="13.0.1" type="github">
  <diagram id="tBWvQxVt5uHw8Wm5NFve" name="第 1 页">
    <mxGraphModel dx="1186" dy="773" grid="1" gridSize="10" guides="1" tooltips="1" connect="1" arrows="1" fold="1" page="1" pageScale="1" pageWidth="4681" pageHeight="3300" math="0" shadow="0">
      <root>
        <mxCell id="0" />
        <mxCell id="1" parent="0" />
        <mxCell id="IpEo87HhEJvQ6snNn-Ca-1" value="" style="shape=image;verticalLabelPosition=bottom;verticalAlign=top;imageAspect=0;aspect=fixed;image=data:image/jpeg,/9j/4QAYRXhpZgAASUkqAAgAAAAAAAAAAAAAAP/sABFEdWNreQABAAQAAABaAAD/4QMvaHR0cDovL25zLmFkb2JlLmNvbS94YXAvMS4wLwA8P3hwYWNrZXQgYmVnaW49Iu+7vyIgaWQ9Ilc1TTBNcENlaGlIenJlU3pOVGN6a2M5ZCI/PiA8eDp4bXBtZXRhIHhtbG5zOng9ImFkb2JlOm5zOm1ldGEvIiB4OnhtcHRrPSJBZG9iZSBYTVAgQ29yZSA1LjYtYzEzOCA3OS4xNTk4MjQsIDIwMTYvMDkvMTQtMDE6MDk6MDEgICAgICAgICI+IDxyZGY6UkRGIHhtbG5zOnJkZj0iaHR0cDovL3d3dy53My5vcmcvMTk5OS8wMi8yMi1yZGYtc3ludGF4LW5zIyI+IDxyZGY6RGVzY3JpcHRpb24gcmRmOmFib3V0PSIiIHhtbG5zOnhtcD0iaHR0cDovL25zLmFkb2JlLmNvbS94YXAvMS4wLyIgeG1sbnM6eG1wTU09Imh0dHA6Ly9ucy5hZG9iZS5jb20veGFwLzEuMC9tbS8iIHhtbG5zOnN0UmVmPSJodHRwOi8vbnMuYWRvYmUuY29tL3hhcC8xLjAvc1R5cGUvUmVzb3VyY2VSZWYjIiB4bXA6Q3JlYXRvclRvb2w9IkFkb2JlIFBob3Rvc2hvcCBDQyAyMDE3IChXaW5kb3dzKSIgeG1wTU06SW5zdGFuY2VJRD0ieG1wLmlpZDo5NEMzMDY4ODFCNzYxMUU4OUI3ODgwQjFBNTY5MkM4QyIgeG1wTU06RG9jdW1lbnRJRD0ieG1wLmRpZDo5NEMzMDY4OTFCNzYxMUU4OUI3ODgwQjFBNTY5MkM4QyI+IDx4bXBNTTpEZXJpdmVkRnJvbSBzdFJlZjppbnN0YW5jZUlEPSJ4bXAuaWlkOjk0QzMwNjg2MUI3NjExRTg5Qjc4ODBCMUE1NjkyQzhDIiBzdFJlZjpkb2N1bWVudElEPSJ4bXAuZGlkOjk0QzMwNjg3MUI3NjExRTg5Qjc4ODBCMUE1NjkyQzhDIi8+IDwvcmRmOkRlc2NyaXB0aW9uPiA8L3JkZjpSREY+IDwveDp4bXBtZXRhPiA8P3hwYWNrZXQgZW5kPSJyIj8+/+4ADkFkb2JlAGTAAAAAAf/bAIQAAQEBAQEBAQEBAQIBAQECAgIBAQICAgICAgICAgMCAwMDAwIDAwQEBAQEAwUFBQUFBQcHBwcHCAgICAgICAgICAEBAQECAgIFAwMFBwUEBQcICAgICAgICAgICAgICAgICAgICAgICAgICAgICAgICAgICAgICAgICAgICAgICAgI/8AAEQgCYgYiAwERAAIRAQMRAf/EAOkAAQACAgIDAQEAAAAAAAAAAAAJCwcKBggBAgUEAwEBAAEFAQEBAAAAAAAAAAAAAAkBBQYHCAIEAxAAAQIEAwQCBw8NCwgHBgcBAAECAwQFBhEHCCExCQpBEiITFLR2dzlRYXEyQtPUFXWVtTa2VxqBkdFS1RaWN5c4WBlZobGy0iOTs1R0FxhygpKiMySEVcFiQ1ODw4bCc5TENYXwYzREZCVmJxEBAAECAwUDCAkCBAYDAQEBAAECBEEDBRExUQYHIWEScZHB0SIyEwjwgaGxQlJiklRTFMLiFRjhcrLSI0OiRBaT8ST/2gAMAwEAAhEDEQA/AN/gAAAAAAAAAAAAAAAAAAAAAAAAAAAAAAAAAAAAAAAAAAAAAAAAAAAAAAAAAAAAAAAAAAAAAAAAAAAAAAAAAAAAAAAAAAAAAAAAAAAAAAAAAAAAAAAAAAAAAAAAAAAAAAAAAAAAAAAAAAAAAAAAAAAAAAAAAAAAAAAAAAAAAAAAAAAAAAAAAAAAAAAAAAAAAAAAAAAAAAAAAAAAAAAAAAAAAAAAAAAAAAAAAAAAAAAAAAAAAAAAAAAAAAAAAAAAAAAAAAAAAAAAAAAAAAAAAAAAAAAAAAAAAAAAAAAAAAAAAAAAAAAAAAAAAAAAAAAAAAAAAAAAAAAAAAAAAAAAAAAAAAAAAAAAAAAAAAAAAAAAAAAAAAAAAAAAAAAAAAAAAAAAAAAAAAAAAAAAAAAAAAAAAAAAAAAAAAAAAAAAAAAAAAAAAAAAAAAAAAAAAAAAAAAAAAAAAAAAAAAAAAAAAAAAAAAAAAAAAAAAAAAAAAAAAAAAAAAAAAAAAAAAAAAAAAAAAAAAAAAAAAAAAAAAAAAAAAAAAAAAAAAAAAAAAAAAAAAAAAAAAAAAAAAAAAAAAAAAAAAAAAAAAAAAAAAAAAAAAAAAAAAAAAAAAAAAAAAAAAAAAAAAAAAAAAAAAAAAAAAAAAAAAAAAAAAAAAAAAAAAAAAAAAAAAAAAAAAAAAAAAAAAAAAAAAAAAAAAAAAAAAAAAAAAAAAAAAAAAAAAAAAAAAAAAAAAAAAAAAAAAAAAAAAAAAAAAAAAAAAAAAAAAAAAAAAAAAAAAAAAAAAAAAAAAAAAAAAAAAAAAAAAAAAAAAAAAAAAAAAAAAAAAAAAAAAAAAAAAAAAAAAAAAAAAAAAAAAAAAAAAAAAAAAAAAAAAAAAAAAAAAAAAAAAAAAAAAAAAAAAAAAAAAAAAAAAAAAAAAAAAAAAAAAAAAAAAAAAAAAAAAAAAAAAAAAAAAAAAAAAAAAAAAAAAAAAAAAAAAAAAAAAAAAAAAAAAAAAAAAAAAAAAAAAAAAAAAAAAAAAAAAAAAAAAAAAAAAAAAAAAAAAAAAAAAAAAAAAAAAAAAAAAAAAAAAAAAAAAAAAAAAAAAAAAAAAAAAAAAAAAAAAAAAAAAAAAAAAAAAAAAAAAAAAAAAAAAAAAAAAAAAAAAAAAAAAAAAAAAAAAAAAAAAAAAAAAAAAAAAAAAAAAAAAAAAAAAAAAAAAAAAAAAAAAAAAAAAAAAAAAAAAAAAAAAAAAAAAAAAAAAAAAAAAAAAAAAAAAAAAAAAAAAAAAAAAAAAAAAAAAAAAAAAAAAAAAAAAAAAAAAAAAAAAAAAAAAAAAAAAAAAAAAAAAAAAAAAAAAAAAAAAAAAAAAAAAAAAAAAAAAAAAAAAAAAAAAAAAAAAAAAAAAAAAAAAAAAAAAAAAAAAAAAAAAAAAAAAAAAAAAAAAAAAAAAAAAAAAAAAAAAAAAAAAAAAAAAAAAAAAAAAAAAAAAAAAAAAAAAAAAAAAAAAAAAAAAAAAAAAAAAAAAAAAAAAAAAAAAAAAAAAAAAAAAAAAAAAAAAAAAAAAAAAAAAAAAAAAAAAAAAAAAAAAAAAAAAAAAAAAAAAAAAAAAAAAAAAAAAAAAAAAAAAAAAAAAAAAAAAAAAAAAAAAAAAAAAAAAAAAAAAAAAAAAAAAAAAAAAAAAAAAAAAAAAAAAAAAAAAAAAAAAAAAAAAAAAAAAAAAAAAAAAAAAAAAAAAAAAAAAAAAAAAAAAAAAAAAAAAAAAAAAAAAAAAAAAAAAAAAAAAAAAAAAAAAAAAAAAAAAAAAAAAAAAAAAAAAAAAAAAAAAAAAAAAAAAAAAAAAAAAAAAAAAAAAAAAAAAAAAAAAAAAAAAAAAAAAAAAAAAAAAAAAAAAAAAAAAAAAAAAAAAAAAAAAAAAAAAAAAAAAAAAAAAAAAAAAAAAAAAAAAAAAAAAAAAAAAAAAAAAAAAAAAAAAAAAAAAAAAAAAAAAAAAAAAAAAAAAAAAAAAAAAAAAAAAAAAAAAAAAAAAAAAAAAAAAAAAAAAAAAAAAAAAAAAAAAAAAAAAAAAAAAAAAAAAAAAAAAAAAAAAAAAAAAAAAAAAAAAAAAAAAAAAAAAAAAAAAAAAAAAAAAAAAAAAAAAAAAAAAAAAAAAAAAAAAAAAAAAAAAAAAAAAAAAAAAAAAAAAAAAAAAAAAAAAAAAAAAAAAAAAAAAAAAAAAAAAAAAAAAAAAAAAAAAAAAAAAAAAAAAAAAAAAAAAAAAAAAAAAAAAAAAAAAAAAAAAAAAAAAAAAAAAAAAAAAAAAAAAAAAAAAAAAAAAAAAAAAAAAAAAAAAAAAAAAAAAAAAAAAAAAAAAAAAAAAEf2o7W/TcrLgZZuXshKXdcFPeqXNNxnxFk5RyJh2hqwVRXRcfTYLg3dv3dDdNeheZq1v/c3lVWVl1e7Ee9Pf27o4cfI5J6yfM9k6Fd/2en005+dTPtzMz4af0xs31ccI3b93WtOJJmZ02NRV/zpz1w2bPy0aX/WzP8A4+ppaPnO1z+Plf8Ay9b2TiS5k9NiUZf8+c/jnn/bPpn9bM/+Pqeo+c/W/wCNleer1vdOJLmP02FR1/8AEm/4xT/bPpn9bM81L1Hzn61/GyvPU9k4k+YmG3L+kY+b26b/AIxT/bNpv9fM81Kv+9DWf42V56nv+snzB6cvaT/Pzf2Sn+2bTv69fmpev96Osfxsrz1PZOJRf3Tl3SV/4ibKf7ZdO/r1+aHr/ejq/wDFyv3VPZOJTfnTlzSlT+1Tf2Ck/LLp/wDXr80PX+9LVf4uX+6p7pxKr4TfltS1X+1zSf8AsnmflksP5Ffmh6j50tU/i5f7qvU904ld69OWdMX/AI2a/iHmflksf5Ff7Y9b3Hzp6l/Ey/3Vep/VOJZd+CY5ZU5fNXu6ZT/yzx/tjs/5Ff7Y9b1/vU1H+Jl/vq9T2TiW3Z05X09f/uEwn/lFJ+WO0/kVftj1vUfOrf8A8Sj98+p/ROJdc/TlbIfUqEx60ef9sVr/ACav2x63uPnVvv4dH759T3TiX3H05VyS/wD3KP6yeZ+WK2/k1ftj1vUfOteY2dH75/7X9E4l9e9VlVJ/Uqcb1g8z8sVv/Jq/bHre4+da7/h0/vn/ALXv+swrWP4qJXD3Ui+sHn/bFkfyZ/ZHreo+da5/h0//ANJ/7Xt+swrHTlRLed//AGkX2OP9sWT/ACZ/ZHrV/wB61z/Dp/8A6T/2s0ZI6wMxc8rshW7beUECBIS6tfX7hiVKN3NIwFXa5ypL7Xr6libVXzsVMJ556N6boNpOdnXUzVPu0+GNtU/u3cZwbK6Y/MRrHNGoRb29lTFEdtdc1z4aI7/Z7Z4RvnyJAjnl1sAAAAAAAAAAAAAAAAAAAAAAAAAAAAAAAAAAAAAAAAAAAAAAAAAAAAAAAAAAAAAAAAAAAAAAAAAAAAAAAAAAAAAAAAAAAAAAAAAAAAAAAAAAAAAAAAAAAAAAAAAAAAAAAAAAAAAAAAAAAAAAAAAAAAAAAAAAAAAAAAAAAAAAAAAAAAAAAAAAAAAAAAAAAAAAAAAAAAAAAAAAAAAAEaesDWDCtiHUcrsrKkkW5IqOg3RdEFyObIIvYugQHJvjdDnJ6Xdv3dOdHOjc3U0319Tsyt9FE/i75/TwjHyb+K/mH+YimxirTNMr2509mZmR+DjTTP5uM/h8u6H6JEfFe+LFesSJEVXRIjlVXOcq4qqqu9VOx6aYiNkbkeFdc1TtntmXoenkAAAAAAAAAAAAAAAAZryNyMu7PS7INv29BWVpcqrX3FcT2qsvJQFXaqr6p7vUMTaq+dipg/PfPlnoNnObnTtrn3acap9XGWy+l3S7UOadQjIt42Zcdtdc7qY9MzhGPkT/AOVuVto5Q2lI2hZ8gktJyyI6cnHIizE5MKmDo0Zyb3O+sibE2Ee3NfNd5rN5NxcVbap3RhTHCO5LRyLyLp/L2n02lpTspjfONU41VTjM/ZuhkYxtmQAAAAAAAAAAAAAAAAAAAAAAAAAAAAAAAAAAAAAAAAAAAAAAAAAAAAAAAAAAAAAAAAAAAAAAAAAAAAAAAAAAAAAAAAAAAAAAAAAAAAAAAAAAAAAAAAAAAAAAAAAAAAAAAAAAAAAAAAAAAAAAAAAAAAAAAAAAAAAAAAAAAAAAAAAAAAAAAAAAAAAAAAAAAAAAAAAAAAAAAAAAAAAjO1gawoduQ6llblXU0i3BER0G6bqgORWyKL2LoEu5Nixehzk9LuTbu6e6N9G5uZpvr+n/AMe+iifxd893CMfI4o+Yj5iYsoq0zS69uduzMyPw8aaZ/NxnDy7og3vfEe+JEesSJEVXRIjlVXOcq4qqqu9VOxaaYiNkbkedVU1TtntmXoenkAAAAAAAAAAAAAAAAZuyLyJu7PW7IVBoEFZSkSjmPuO43tVYElAVfN9VEdh2DE2qvnYqYLz5z7Z6DZzm5s7a592nGqfVxls3pb0s1DmnUIyMiPDl0+/XO6mPTM4Rj5E/+WGWFpZR2lIWfZ8gkpISiI6amlRFjzcdURHRozk9M537m5NhHvzTzTeaxeVXFxVtqndGERwjuS08j8j6fy9p9NpaU+GinfONU41VTjM/ZuhkMxxl4AAAAAAAAAAAAAAAAAAAAAAAAAAAAAAAAAAAAAAAAAAAAAAAAAAAAAAAAAAAAAAAAAAAAAAAAAAAAAAAAAAAAAAAAAAAAAAAAAAAAAAAAAAAAAAAAAAAAAAAAAAAAAAAAAAAAAAAAAAAAAAAAAAAAAAAAAAAAAAAAAAAAAAAAAAAAAAAAAAAAAAAAAAAAAAAAAAAAAAAAAAAAAjI1gawmUFtSyryqqaRK29HQbquyA/Fsmi9i6Xl3t3xeh709LuTbu6h6N9GpuJpvr+n/wAe+iifxcKqo4cIx8m/iT5h/mJi0ivS9Lr25u7MzI/Dxppn83GcN0du6Ih73xHuiPcr3vVVe9VxVVVcVVVU7DiIiNkI9qqpmds73qVUAAAAAAAAAAAAAAAAGcsh8h7tz2uyFQ6HBdJ0STVr7kuV7FWBJwVX/WiO9QxN/nJipgnP3P1noFnObmztrn3acap9EcZbQ6V9KtQ5qv4yciPDlU+/XO6mPTM4R6E/2WeWdp5TWnIWhZ9PSTp8miLMTCoix5qOqIjo0Z3qnuw+puTYR7c0c0Xer3dVxcVbap3RhEcI7ks/JPJOn8v6fTaWlPhop3zjVONVU4zP/CGQDHmXAAAAAAAAAAAAAAAAAAAAAAAAAAAAAAAAAAAAAAAAAAAAAAAAAAAAAAAAAAAAAAAAAAAAAAAAAAAAAAAAAAAAAAAAAAAAAAAAAAAAAAAAAAAAAAAAAAAAAAAAAAAAAAAAAAAAAAAAAAAAAAAAAAAAAAAAAAAAAAAAAAAAAAAAAAAAAAAAAAAAAAAAAAAAAAAAAAAAAAAAAAAAACMHWDrDZSGVLKvKmpo+rPR8C7LsgOxSVRexdLy7m74nQ96el3Jtxw6l6N9Gpzppv7+n2N9FE48Kqo4cIx37nD/zEfMTFvFel6XX/wCTdmZkfh400zx4zhujt3RHuc57nPe5Xveqq5yriqqu1VVVOv4iIjsR9zMzO2XqVUAAAAAAAAAAAAAAAAGdshchLtz3uuHRqLCdI0GRcx1yXK9irAk4KruTcjojkTsWIvnrgmKmBc/9QLPQLT4mb25k+7TjM+iIxn0tpdKelOoc1X8ZOTHhyqffrndTHpqnCPQn8y1y0tPKi1KfZ9n05sjTpJEWPGVEWNMxlREdGjP3ue7Db5m5NhHvzPzPd6vd1XFxVtqnzRHCOEQln5L5L0/QLCm0tKfDRTvnGqcaqpxmXPjH2WAAAAAAAAAAAAAAAAAAAAAAAAAAAAAAAAAAAAAAAAAAAAAAAAAAAAAAAAAAAAAAAAAAAAAAAAAAAAAAAAAAAAAAAAAAAAAAAAAAAAAAAAAAAAAAAAAAAAAAAAAAAAAAAAAAAAAAAAAAAAAAAAAAAAAAAAAAAAAAAAAAAAAAAAAAAAAAAAAAAAAAAAAAAAAAAAAAAAAAAAAAAADdtXcBF5rB1htpjanlVlTU+tUnI+Bdt2wH4pLovYulpZ7fV9D3pu3Jtxw6o6N9GpzfDf39Ps76KJx/VVHDhGO+exw38xHzExkePS9Lr9vdmZkYcaaZ48Zw3R27olHOc9znvcrnOXFzlXFVVelcTryI2I/5mZnbL1KqAAAAAAAAAAAAAAAADPWQWQN2Z8XVDpNHhukLekHMdctzPYqwZWEq49VvQ6K5PSt+quCGAdQeoNpoFp8TM9rMq92nGZ9ERjLavSbpPf8ANV/8LKjw5NPv14Uxw76pwj657E/mXGXFqZV2pTrPs+nNkKXIN7N+CLGmIyp2caM9ETrPcu1V+omwj45l5lu9Wu6ri4q8VdXmiMIjhEJZuTeTbDQbCm0tKfDRT55nGZnGZc6LAyoAAAAAAAAAAAAAAAAAAAAAAAAAAAAAAAAAAAAAAAAAAAAAAAAAAAAAAAAAAAAAAAAAAAAAAAAAAAAAAAAAAAAAAAAAAAAAAAAAAAAAAAAAAAAAAAAAAAAAAAAAAAAAAAAAAAAAAAAAAAAAAAAAAAAAAAAAAAAAAAAAAAAAAAAAAAAAAAAAAAAAAAAAAAAAAAAAAAAAAAAAAAAbtq7gIt9YOsNsilSyqyoqiOnXI+Bdt3QHoqQfUvlpZ7fVdD3pu3Jtxw6q6NdGvieG/v6fZ30UTjwqqjhwjHfLhf5iPmKjK8el6XX7W7MzIndxppnjxnDdHaiYVVcqucvWc5cXOXaqqu066iHAUzteCoAAAAAAAAAAAAAAAAM+6f8AIC6s+bqZSqUx1Ptunua65bmcxVgysJdvUbuR0Vyelb9Vdhr7qF1CtNAtPiZntZtXu04zPoiMZbY6S9Jb/mu/+Flezk0+/XhTHCONU4R9c9ifvLvLu1crbVp1n2fTW0+lU9vZOwRYseKqdnFiu3ue5dqqv7xHxzHzHd6rd1XFxV4q6vNEcI4RCWXk/k+w0KwptLSnw5dPnmcZmcZlzgsTKAAAAAAAAAAAAAAAAAAAAAAAAAAAAAAAAAAAAAAAAAAAAAAAAAAAAAAAAAAAAAAAAAAAAAAAAAAAAAAAAAAAAAAAAAAAAAAAAAAAAAAAAAAAAAAAAAAAAAAAAAAAAAAAAAAAAAAAAAAAAAAAAAAAAAAAAAAAAAAAAAAAAAAAAAAAAAAAAAAAAAAAAAAAAAAAAAAAAAAAAAAAAAqoiYrsRN6gRXawdYiQEqeVOU9UxjL14F3XfAf6T1L5aWe3p6HvTduTpU6v6N9GvF4b+/p7N9FE/ZVVH3R9cuEfmJ+Yrw+PS9Kr7d2ZmRhxpon76vqhFCqqqqqriq7VVd6qdauCJl4KgAAAAAAAAAAAAAAAA7AafdPt1Z83Sym0xjqdbFOcx1zXM5irCloa7eozHY6K5PSt+quw151D6h2mgWnjr9rNq92nGZ4zwiMZba6SdJL/AJrv/h5fs5FPv14UxwjjVOEfXPYn6y9y9tXK+1qbaFn01tOpNOaibERYseKqdlFiu3ue5dqqv7xHzzHzHd6rd1XFxV4q6vNEcI4RCWTlDlCw0OwptLSjw5dPnmcZmcZnGXNixsnAAAAAAAAAAAAAAAAAAAAAAAAAAAAAAAAAAAAAAAAAAAAAAAAAAAAAAAAAAAAAAAAAAAAAAAAAAAAAAAAAAAAAAAAAAAAAAAAAAAAAAAAAAAAAAAAAAAAAAAAAAAAAAAAAAAAAAAAAAAAAAAAAAAAAAAAAAAAAAAAAAAAAAAAAAAAAAAAAAAAAAAAAAAAAAAAAAAAAAAAAAAAPCqiIqquCJvUEyiq1h6wur7Z5UZUVTb2cC77vl37vUvlpZ7frPenoJ0qdY9GujXu39/T30UT9lVUfdH1y4N+Yn5ivf0vSq+7MzInz00T99X1QimVVVVVVxVd6nWbgx4KgAAAAAAAAAAAAAAAA7B6fNPl1Z83Syn05jqba1Ne11zXM5irDl4a7e1sx2OiuT0rfqrsNd9ROolpoFp46/azavdpxmeM8IjGW2+kXSO/5rv8A4eXtoyKPfrwiOEcapwj657E/GX+X9rZY2tTbQtCmtptIprUREREWJGiKnZRYrt7nuXaqqR88w8xXeqXdVxcVeKurzRHCOEQll5R5RsNDsKLS0o8GXR55nGZnGZxlzUsjJQAAAAAAAAAAAAAAAAAAAAAAAAAAAAAAAAAAAAAAAAAAAAAAAAAAAAAAAAAAAAAAAAAAAAAAAAAAAAAAAAAAAAAAAAAAAAAAAAAAAAAAAAAAAAAAAAAAAAAAAAAAAAAAAAAAAAAAAAAAAAAAAAAAAAAAAAAAAAAAAAAAAAAAAAAAAAAAAAAAAAAAAAAAAAAAAAAAAAAAAAAAADwqoiKqrgib1BMopdYWsNH+2eVWVFUxZ2UC7rugO372vlpZ7frPenoJ0qdadG+jWzw39/T30UT9lVUfdH1y4K+Yn5idvj0vS6+7MzI+2mif+qfqhFWqqqqqriq71OsHB7wVAAAAAAAAAAAAAAAAB2G09aebpz6uhsjIMfTLTpj2Oua53MVYcCGq49rh47HxXJ6VvRvXYa66i9RbTl+18VftZ1Xu04z3zwiMZ+qG3ekPSG/5rvvBl7aLeifbrwiOEcapwj65T72BYFrZZ2tTbQtCmsplHpjERrURFiRYip2UWK7e5712qqkfPMPMN1ql1VcXFXirq+zujhEJZOU+U7HRLGi0tKIoy6I+uZxmZxmcZczLKyQAAAAAAAAAAAAAAAAAAAAAAAAAAAAAAAAAAAAAAAAAAAAAAAAAAAAAAAAAAAAAAAAAAAAAAAAAAAAAAAAAAAAAAAAAAAAAAAAAAAAAAAAAAAAAAAAAAAAAAAAAAAAAAAAAAAAAAAAAAAAAAAAAAAAAAAAAAAAAAAAAAAAAAAAAAAAAAAAAAAAAAAAAAAAAAAAAAAAAAAAAAAA8KqIiqq4Im9QTKKHWFrC7etTypyoqn8inXgXdd0u/06pi18tLPb0dD3p6CdKnW3Rro14fDf39Pbvoon7Kqo+6PrlwP8xPzE+Lx6XpdfZuzMyJ89NM/fP1QivVcdq7VXep1c4SeCoAAAAAAAAAAAAAAAAOxWnfTtdGfVztlJRr6XaFLe1bluZWr1ITF29qhY7HRXJuTo3rsNb9R+o9ry/a+Kr2s6r3aePfPCI/4Q3F0f6PX3Nd94aNtFvRPt14RHCONU4RhvlPtYdh2vlra9MtC0KYyl0alsRsKG1E68R/qokR29z3Ltc5SPvX9futTuqri4q8VdX2d0cIjCEsPKvKtjotjRaWlEUZdEfXM4zM4zOMuYFmZEAAAAAAAAAAAAAAAAAAAAAAAAAAAAAAAAAAAAAAAAAAAAAAAAAAAAGK8089cksjJGk1TOzOG1sn6bXo0SXodQui4KTQIE7HhMSI+HAfVY8BsR7WrirWqqom0Dh+XOrbSrnBc0GyspdTGX+aF5TEGNMS9p27eVu1qpxJeXajosVsrTZuNFVjEXFzkbgnSB2EAAAAAAAAAAAAAAAAAAAAAAAAAAAAAAAAAAAAAAAAAAAAAAAAAAAAAAAAAAAAAAAAAAAAAAAAAAAAAAAAAAAAAAAAAAAAAAAAAAAAAAAAAAAAAAAAAAAAAAAAAAAAAAAAAAAAAAAAAAAAAAAAAAAAAeFVERVVcETaqruRBEKTOxE7rC1hLNLU8qcqKphLJ14F23dLv/2nqXy0s9vqeh7037k6VOuOjXRrweG/v6e3fRROHCqqPuj65cC/MT8xPxPHpel1+zuzMyMeNNM8ONX1QiyOrHCoVAAAAAAAAAAAAAAAAB2Q056c7mz7uZIEBH0qzaU9q3Jcqt7Fjd/aYOOx0Vybk6N6+frXqR1JteX7XbPtZ9Xu08e+eER9u6G5ejnRy95rvfDTtotqJ9uvh+mONU/ZvlPnY1jWxlzbNMtG0aYylUWlMRsCAxOye71USI7e57l2ucu1SPzXteutSuqri4q8VdX02RwiMISwcr8r2OjWVFpaURRlUR2Rx4zM4zOMuWlnZAAAAAAAAAAAAAAAAAAAAAAAAAAAAAAAAAAAAAAAAAAAAAAAAAAAAAADR453z82bQt4d3R8n4AEA3KJeWVsPwCvz4NhgWwAAAAAAAAAAAAAAAAAAAAAAAAAAAAAAAAAAAAAAAAAAAAAAAAAAAAAAAAAAAAAAAAAAAAAAAAAAAAAAAAAAAAAAAAAAAAAAAAAAAAAAAAAAAAAAAAAAAAAAAAAAAAAAAAAAAAAAAAAAAAAAAAAAAAHhzmtarnKjWtTFzl2IiIViNqkzsRLawdYa1F1TyqyoqeFPb14F23dAd/t1TsXy0s9vqOh7037k2bV676N9Goy4pv7+n2t9FE4cKqo48Iw3y4A+Yj5ivjTXpelV+x2xmZkY8aaZ4cZx3R2IulVVXFdqrvU6ocNPBUAAAAAAAAAAAAAAAAHZTThpxuXPq5Uhw2vpVlUmI1bkuRW7Gpv7TB62x0VydHQm1fP1l1K6lWvL9rtn2s+qPZp9M8Ij7d0N0dGujd7zXe7I20W1E+3X/hp41T9m+U+Nk2TbOXdtUy0rSpjKVRKUxGS8uxOyc71T4jt7nuXa5y71I/dc1y61K6quLirxZlU9s+iOERhCV/lnlmy0eyotLSiKMqiNkRH3zxmcZcrLSvwAAAAAAAAAAAAAAAAAAAAAAAAAAGt5xU+ZKyB4VGp6DpfzK053jmjcUa3KVcjbnoc/RJaR7RVY0zBZB6k/EbE67FllVy4YbUwAjY+m6aQP0Lcyffe1/XgH03TSB+hbmT772v68A+m6aQP0Lcyffe1/XgH03TSB+hbmT772v68A+m6aQP0Lcyffe1/XgH03TSB+hbmT772v68A+m6aQP0Lcyffe1/XgH03TSB+hbmT772v68A+m6aQP0Lcyffe1/XgH03TSB+hbmT772v68A+m6aQP0Lcyffe1/XgH03TSB+hbmT772v68A+m6aQP0Lcyffe1/XgH03TSB+hbmT772v68A+m6aQP0Lcyffe1/XgH03TSB+hbmT772v68A+m6aQP0Lcyffe1/XgH03TSB+hbmT772v68BtU6BtYdq6/NIuS+ryybQqFh2vnTJT07SbSqsWWjVCTZI1ebpDmxnybnQ1VzpRXJ1V3KnSB3BAAAAGjxzvn5s2hbw7uj5PwAIBuUS8srYfgFfnwbDAtgAAAAAAAAAAAAAAAAAAAAAAAAAAAAAAAAAAAAAAAAAAAAAAAAAAAAAAAAAAAAAAAAAAAAAAAAAAAAAAAAAAAAAAAAAAAAAAAAAAAAAAAAAAAAAAAAAAAAAAAAAAAAAAAAAAAAAAAAAAAAAAAAAAAeHOaxrnOcjWtRVc5VwRETbiuJWI2qTMRG2UR+sHWE6ruqWVeVVTVtKaroF13ZAfgsyqdi+Xl3t/7Poe9PTbk2b+vujfRv4Phv7+n299FE4cKqo48Iwx7UffzEfMTNxNel6XX/AOPdmZkfi400zw4zjujs3xgHUzh8AAAAAAAAAAAAAAAAAOy+m/TdcufVyIjWxKTY9JiNW47kVuzDf2iBjsdFcn1GptXox1h1L6l23L9thVn1R7NPpnhEfbuhuroz0Zvea73Gi1on26/8NPGqfs3ynwsyzLby+tumWnadMh0mh0mGjJWVYm1V3ue929z3Ltc5dqqR/a3rd1qNzVcXFU1ZlU9s+iOERhCV7lrlqy0iyotbSiKMqiNkRH3zxmcZcpLUvoAAAAAAAAAAAAAAAAAAAAAAAAAAACq55xfyuEh4rbP79qgERPD14QWt7ig0vM2s6RLIo93SOUMxTZa931S4qXQ3QItWhx4sskNKjEhrERySz8Vbuw27wJHPolfGm+Za0vygWx7IAfRK+NN8y1pflAtj2QA+iV8ab5lrS/KBbHsgB9Er403zLWl+UC2PZAD6JXxpvmWtL8oFseyAH0SvjTfMtaX5QLY9kAPolfGm+Za0vygWx7IAfRK+NN8y1pflAtj2QA+iV8ab5lrS/KBbHsgB9Er403zLWl+UC2PZAD6JXxpvmWtL8oFseyAH0SvjTfMtaX5QLY9kAPolfGm+Za0vygWx7IAfRK+NN8y1pflAtj2QA+iV8ab5lrS/KBbHsgB9Er403zLWl+UC2PZAD6JXxpvmWtL8oFseyALGPgy6X83dGHDM0qaZc+KRK0HNrKmlVaUvKkyU9L1KVgxpu5qlU4aQ5mUc6HERYMyxVVq7FXDegEnoAAAA0eOd8/Nm0LeHd0fJ+ABANyiXllbD8Ar8+DYYFsAAAAAAAAAAAAAAAAAAAAAAAAAAAAAAAAAAAAAAAAAAAAAAAAAAAAAAAAAAAAAAAAAAAAAAAAAAAAAAAAAAAAAAAAAAAAAAAAAAAAAAAAAAAAAAAAAAAAAAAAAAAAAAAAAAAAAAAAAAAAAAAAAAHq5zWNc97kYxiKr3quCIibVVVUrETM7IUqqiI2yiK1g6wnVx9SyryqqasorOvAuu64D1RZtU7F8vLvav+z6HvT025Nm/sLo30ajIim+v6fb30UTh+qqOPCMPKj3+Yj5iZupr0vS6/wDxbszMj8XGmmfy8Zx3R2b4xjqFxGFQAAAAAAAAAAAAAAAAdnNNmmy48+rjRzkiUmxaREb98VxdXf6rtEDHY6K5PqNTavRjq7qZ1MtuX7bCq4qj2afTPCI+1u3ov0XvOa7zGi1on26/8NPGqfs3ynts6zbbsG3KZalp0uHSKHSYaQ5WUhpv81713ue5drnLtVSP/WtaudQuari4qmrMqntmfujhEYQlc5c5cs9Js6LW1oijKojZER988ZnGcXJy1r4AAAAAAAAAAAAAAAAAAAAAAAAAAAAAVXPOL+VwkPFbZ/ftUAl/5Hj8XXEI927A7xrQG+OAAAAAAAAAAAAAAAAAAAAAAAAANHjnfPzZtC3h3dHyfgAQDcol5ZWw/AK/Pg2GBbAAAAAAAAAAAAAAAAAAAAAAAAAAAAAAAAAAAAAfEuWajyNuXBPSsTtU1JyU3FlouCL1YkOA57VwXFNioBUNXNzKvGskLkuCRlNbNRhSslPTcKWhfexZK9WHDjvY1MVo6rsRALRDheZu5h5+8OrRXnXm1cT7uzNzSy3tWuX3c8SDLy75+qVClwpiYjuhSkOFCYr3uVcGMRE6EA74AAAAAAAAAAAABqT81lxGtZfD0y40eVzR/nPMZO1TMut3VK3tNS9No1RWel6fISEWXY5KxKTaN6jozlxYiKuO3ECKTlveNBxK9cPE1tjIjVDqZnM0cqZ6zbuqc3aUaiWzIQ3z1OlYMSXirFpdOlo2LFcqoiPwXpRQLDMAAAAAAAAAAAAAAAAAAAAAAAAAAAAAAAAAAAAAAAAAAAAAAAAAAAAAAAAAAAAAAAAAAAAAAAAAAAAAAAAAAAAAAAAAPV72Q2OiRHIxjEVXvVURERExVVVegrETM7IUqqiI2zuRCav9YT7hfUsrcq6ksOgsV0C6bqgOwWdVF6roEu5v/ZdDnJ6bcmzf2J0c6NRbRTfX9P8A5N9FE/h76u/hGHlR5/MR8xE3k16XpdezK3ZmZH4uNNM/l4zjh2b4zDqBxOAAAAAAAAAAAAAAAAAHaDTTpquHPm4kixUiUmw6REb98NwdXDrrv7nl8UwdEcm/oam1ehF1Z1O6m22gW2yNlVxVHs0/4p7vvbw6LdFrzmu82ztotKJ9uvj+mnjVP2b5T12haFu2HbtMtW1aZDpFDpENIcnJw0w9Fzl3uc5drnLtVTgDWdZudQuas/PqmrMqnbMz9N0YQlb5e5es9Ks6LW1oijKojZER988ZnGcXJS2L0AAAAAAAAAAAAAAAAAAAAAAAAAAAAAAKrnnF/K4SHits/v2qAS/8jx+LriEe7dgd41oDfHAAAAAAAAAAAAAAAAAAAAAAAAAGjxzvn5s2hbw7uj5PwAIBuUS8srYfgFfnwbDAtgAAAAAAAAAAAAAAAAAAAAAAAAAAAAAAAAAAAAOOXj8Ubp9zZ7vZ4FCdeXxvur3Snu+ngXTfBa8ktw6vFFZHwJBAk5AAAAAAAAAAAADRK54P8UWgLwkvf4MpgEHfKGeWRszxfX33lAAteQAAAAAAAAAAAAAAAAAAAAAAAAAAAAAAAAAAAAAAAAAAAAAAAAAAAAAAAAAAAAAAAAAAAAAAAAAAAAAAAAAAAAAAAB6PeyEx8WK9IcOGiuiRHKiNa1ExVVVdyIVppmZ2RveaqopjbPZEIf8AV9rCi3O+pZXZWVJYVtw1fBui6YLsHT6p2LoEBzd0Hoc5PTbk2b+yOjnRqLWKb6+p/wDLvoon8PfP6uEYeVHh8w/zETfTXpmmV7MmOzMzI/Hxppn8vGfxeTfGkdOOKwAAAAAAAAAAAAAAAAA7R6Z9NFwZ83CkxMJEpNg0eI374K/1cFiKm3ueXVUwdEcm9dzU2r0Gqup3U630C22RsquKo9mnh+qru+9vLop0VvOa7zxVbaLSifbr4/pp4zP2b5T1WlaVvWNb1Mta1aXDpFDpMNIcnJQkwRETe5y73Ocu1zl2qpwDq+sXN/cVZ+fVNWZVO2Zn6buEJWuX+X7PS7Oi1taIoyqI2REfTtmcZxcjLavIAAAAAAAAAAAAAAAAAAAAAAAAAAAAAAAVXPOL+VwkPFbZ/ftUAl/5Hj8XXEI927A7xrQG+OAAAAAAAAAAAAAAAAAAAAAAAAANHjnfPzZtC3h3dHyfgAQDcol5ZWw/AK/Pg2GBbAAAAAAAAAAAAAAAAAAAAAAAAAAAAAAAAAAAAAccvH4o3T7mz3ezwKE68vjfdXulPd9PAum+C15Jbh1eKKyPgSCBJyAAAAAAAAAAAAGiVzwf4otAXhJe/wAGUwCDvlDPLI2Z4vr77ygAWvIAAAAAAAAAAAAAAAAAAAAAAAAAAAAAAAAAAAAAAAAAAAAAAAAAAAAAAAAAAAAAAAAAAAAAAAAAAAAAAAAAAAAAAB6RIkODDiRYr0hQoSK6LEcqI1rWpiqqq7kRD1TTNU7I3y811xTG2eyIQ86vtYMW7IlSyvyuqLoVrwldBua5oLla6ouRcHQYLk2pBTc53q/Q39ldHOjcWkU319Ttzd9NE/h75/V3YeXdHZ8w3zEVahNWmaZVsyI7K64/Hxppn8vGfxeTfGwdMuLwAAAAAAAAAAAAAAAAA7S6ZtM9wZ83AkzNNiUjL+kRG+31f6uCxXJt7nl1XY6Iqb13NTavQhqnqf1Pt9At/DTsquKo9mnh+qru+9vTon0Tu+a7vxVbaLSifbr4/pp4zOPDzJ6bTtO37Ht+mWta1Mh0ih0iGkKSkoSYIiJvVV3uc5drnLtVTgLV9XuL64qz8+qasyqdszP03cISs6BoFppdpRa2tEUZVEbIiPp2zOM4uRFtXgAAAAAAAAAAAAAAAAAAAAAAAAAAAAAAAAFVzzi/lcJDxW2f37VAJf8AkePxdcQj3bsDvGtAb44AAAAAAAAAAAAAAAAAAAAAAAAA0eOd8/Nm0LeHd0fJ+ABANyiXllbD8Ar8+DYYFsAAAAAAAAAAAAAAAAAAAAAAAAAAAAAAAAAAAABxy8fijdPubPd7PAoTry+N91e6U9308C6b4LXkluHV4orI+BIIEnIAAAAAAAAAAAAaJXPB/ii0BeEl7/BlMAg75QzyyNmeL6++8oAFryAAAAAAAAAAAAAAAAAAAAAAAAAAAAAAAAAAAAAAAAAAAAAAAAAAAAAAAAAAAAAAAAAAAAAAAAAAAAAAAAAAAAAA9IsWHAhxI0aI2FBhNV0WK5Ua1rWpiqqq7kRD1RRNU7I7Zl5rrpppmZnZEIdNX2sCLeEWo5YZX1F0G1ITnQbkuWC5WuqTmr1XQoLm7oHmr6v0N/ZnR3o5FlFN9fU7c6e2mmfw98/q+7yo6PmG+YirUaqtM0yrZbx2V1x+Puify8Z/F5N8bp0u4zAAAAAAAAAAAAAAAAADtVpl0yV/PivNnZ1ItIy9pERvt5Xerg6O5FxWXl1XYsRU3ruam1duCGp+qHVC30C38NOyq4qj2aeH6qu7729uiXRK75qu/HXtos6J9uvj+mnjPGcE8tq2rb9k0CmWva9MhUeh0iGkKRkYTcGtam9VXernLtc5dqrtU4D1bVri+uKs/PqmrMqnbMz9PNCVjQdBtNMtKLa2oijKojZER9O2ZxnFyEty7gAAAAAAAAAAAAAAAAAAAAAAAAAAAAAAAAAVXPOL+VwkPFbZ/ftUAl/5Hj8XXEI927A7xrQG+OAAAAAAAAAAAAAAAAAAAAAAAAANHjnfPzZtC3h3dHyfgAQDcol5ZWw/AK/Pg2GBbAAAAAAAAAAAAAAAAAAAAAAAAAAAAAAAAAAAAAccvH4o3T7mz3ezwKE68vjfdXulPd9PAum+C15Jbh1eKKyPgSCBJyAAAAAAAAAAAAGiVzwf4otAXhJe/wAGUwCDvlDPLI2Z4vr77ygAWvIAAAAAAAAAAAAAAAAAAAAAAAAAAAAAAAAAAAAAAAAAAAAAAAAAAAAAAAAAAAAAAAAAAAAAAAAAAAAAAAAAAAAH84sWFAhRI8eI2DBgtV0WK5Ua1rWpiqqq7ERE3nqiiap2R2zLxmZlNFM1VTsiEOWr7V/GvOLUcsMsag6DaMJzoNx3HCcrXVNzVwdChOTakBNyr6v0N/Z/R3o5FjFN9fU7c6e2mmfwd8/q+7yo5vmG+YerUqqtN0yrZbx2V1x+Puj9H/V5N8cB0o42AAAAAAAAAAAAAAAAADthpi0w13PautqVRbFpGXdIiolarXVVHTL24KsvLquxXqnpnbmp5+CGpOqXVK30DI8FGyq5qj2aeH6qu7hGLffRDohd81XXxMzbRZ0T7VX5v009/GcPKnhte16BZdBplsWxTIVHodIhpCkJCE3qta1OlelXKu1VXaq7VOBdV1W4vbirPz6przKp2zMpVND0O0020otraiKMqiNkRH038ZxffLeuwAAAAAAAAAAAAAAAAAAAAAAAAAAAAAAAAAACq55xfyuEh4rbP79qgEv/ACPH4uuIR7t2B3jWgN8cAAAAAAAAAAAAAAAAAAAAAAAAAaPHO+fmzaFvDu6Pk/AAgG5RLyyth+AV+fBsMC2AAAAAAAAAAAAAAAAAAAAAAAAAAAAAAAAAAAAA45ePxRun3Nnu9ngUJ15fG+6vdKe76eBdN8FryS3Dq8UVkfAkECTkAAAAAAAAAAAANErng/xRaAvCS9/gymAQd8oZ5ZGzPF9ffeUAC15AAAAAAAAAAAAAAAAAAAD49VuGgUKGkauVyTo0Fd0WbmYMu368ZzUA4gmcWUav7WmaduLE3dr9vKZ1sfQ7cBy+l3DQK5DWLRK5J1iEm+JKzMGYamPnwXOQD7AAAAAAAAAAAAAAAAAAAAAAH55mblZOE+POTMOUgQ0xiRoj2w2NTzVVyoiAcGms2cq5GIsKdzMt+TipsWFFrNOhuT6j4yKB9ei31ZFyP7Vbt40qvRN/a5Koyk0760CI4DlQAAAAAAAAAAAAAAAAAAAAAAAAAAAAAAAAAAP5xo0KXhRY8eK2DAgtV8aM9Ua1jWpiqqq7ERE3qeqKJqnZHbMvGZmU0UzVVOyI3yhu1e6v417RqhllljUHQLPgudCuK4oTla6qOauDoUJybUgIu9fV+hv7R6O9HKbGKb29p2509tNM/g75/V93lRyfML8w9WqVVabptWy2jsrrj/2d0fo/6vIjkOknHAAAAAAAAAAAAAAAAAAdttL2l+t56VttWqzItJy5pMVEq9XwVr5t7VRVl5dVTa5fVO3NTz8ENQdU+qeRoOR8PL2VXNUdlPD9VXojF0B0O6HXXNN18XN20WdE+1VjVP5ae/jOHlTvW1bVCs+h0227apkKj0Skw2wpCnwWo1jGN/fVd6qu1V2qcEanqdxeZ9WdnVTVmVTtmZSo6Lotrp1rRbW1EUZVEbIiN0fTGcX3D4F0AAAAAAAAAAAAAAAAAAAAAAAAAAAAAAAAAAAAKrnnF/K4SHits/v2qAS/8jx+LriEe7dgd41oDfHAAAAAAAAAAAAAAAAAAAAAAAAAGjxzvn5s2hbw7uj5PwAIBuUS8srYfgFfnwbDAtgAAAAAAAeF2IqgVomoTm+eJzlbn5nhljbuX2U8e38ubvuWg0KNM25Xoky+TpFamafBdFcytsa56shIrlRqIq9CAb2XCk1T5i62uHppe1T5syNMpmYuctBjVK6pGjS8eVpkOYh1WbkkSXhTMaYe1vUgN2OiO24gSFAAAAAAAAAAAAAAAaSfHz5ibXFwxteUTTPp+tCwK1YDLPt6vJO3JRatP1LuyqumkjN7bJ1SUZ1E7S3qp1MU81QO+vLdcYzVHxbKFqvqWpa3bRoExkjN2lAtJLVptQpzYrK5BqkSY7oSenp3rqiyTOp1erhtxx6A2dwAADojxO9St/aOtAOqzU/lbJ06oZhZKWlO1y0pKrwI01TIk5LxIbGpMQpeNAe9nZrijYjV88CvS+macVH5ucoPwZuD7ugPpmnFR+bnKD8Gbg+7oD6ZpxUfm5yg/Bm4Pu6B+Ko85NxTKnT5+mzGXeUTZeowYsCO5ts3AjkZGYsNcFWurtwXYBqeVKejVSoz9TmEa2YqMeLHjtaio1HxoixHYIuOzFdgGzBpo5rbiPaVtPuTmm7LmxMr56w8kLdpds2jOVS363MVGLT6TKtlILpmLArMFj4itYnWVrGoq9CAZw+macVH5ucoPwZuD7ugPpmnFR+bnKD8Gbg+7oD6ZpxUfm5yg/Bm4Pu6A+macVH5ucoPwZuD7ugbx/Am185zcSnh72Xqmz6pVCo2YlwXFc9KnZG3ZOakaYktRqkspAVsKcmZt6OVqdkvbNq9CATGAANK/mB+YU1t8LnXFb+nHTzaVhVyxapYdDuWYnLmo1Vn6gk/UqlUpSK1sSSqcmztaNk2dVOpjjjtAg0+macVH5ucoPwZuD7ugPpmnFR+bnKD8Gbg+7oD6ZpxUfm5yg/Bm4Pu6BFVxQ+Nvq04tNvZSW1qVtqzaBIZMztUnrVfatLqNOiRI1WgQJeMkws9UJ1HNRsu3q9VG4bd4HV3h38QHOnhn6kabqiyDpNBreYVLpFWosvI3HJzU9TFlaxCbBjOdCk5mUf10RidVe2YJ0ooE+/0zTio/NzlB+DNwfd0B9M04qPzc5QfgzcH3dAfTNOKj83OUH4M3B93QH0zTio/NzlB+DNwfd0Dutw4eat4jWrPXdpT01ZlWLlhIWDnXelHt+7ZylW/W5eow5GfjdriOl4sesxmMiIm5XMcnnAWIoAAAAAAAAAB021jcQLR9oFsZ1/6rc86LlVTYzHvotDmY/b63VXMTayQpsqkSZmHdHYQ1ROlUA0v9bXOqVBZur2roD03QYclDWJCk83Mwoj3xImGKJGl6LS4rUanSnbphV81gGsxqH4+3Fy1LzU8t8a1rstWjzyu61rWdMss6nMY71KMt1sq9yJ0K97l88CLq7M3c1r8nZio3xmbcF41CbVXTU9VazUahFiOVcVVz5uNEVV9FQOA9vj9ftnbndsXasTrL1sfRA53a+bOadkTkCoWZmVX7SnpVUdLTlMrFRkIsNU2orXysZioqecoEmWn/jvcWrTZNSMSwNb16VulyLmq22bqn0u+mva31LoNxtnMEXp6qovngbKOivnU7/pU3SLX16ab5K7KQ5WQ5/NWwHrT6jDRVRFixqRUoj4EXDeqQo8Pzm9AG6fok4kmi/iHWV9+mlLPGlZirKwmRLgs1YiyVx0dXp6Wepc31JiDt2dZWqxfUuUDvMAAAAAAAAAAaWnMF8wjra4W+t+2NOeni0rCrljVmwaJc81OXNRqrP1BKhUarVJKK1sSSqcmxIaMkmdVOpjjjtA7nctzxkNUnFtpOrOd1LW7aNAjZHzFnwrRS1aZUKc2K2vQqs+Y7p7unp3rqiyLOp1erhtxx6A2fQAHF70vezst7Wrl8Zg3VT7Js22ZeJN3DdVVnIEhT5KWhN6z4sePNOYxjUTpVQNRfiB84To70/z1csHRlY0zq2v2nOiQHX5FjRKLZECOxVbjDmHMdNTrUXpgw2scm6IoGpZqd5oHi+6kJuoQKXqCh6erVnFekva+X1Nl6I+DCdub7YxUmJ9y4dPb0AhqzJ1Yaos456NUs2NRl85kTsdyuiR63dVcqa4rvwSbmXoieciYAYJmZ6dnXrFnJyLNxFXFYkWI+I5V9F6qB9ugXneFqTUGete66lbc7LOR0vNyE9NScVjmriitdLvYqKnnAWcnJ6Zv6j879FOom8M/M6bpzfptFv6WoWWqXNWZ+tLS5OQoEtNzEKWi1CJFe1j4k23FqOw2IBt3gAAAAAAAAAAAAAAAAAAAAAAAAAAAAAAAD+UePAlYEaZmYzZeXl2ufHjvcjWMY1OsrnKuxERN6nvLy6q6oppjbMvzzc2mimaqp2RHbMzghp1d6v5i+41Qy0yzn3S1lwHOhV64ITla+quauCw4apgqQEX/AE/Q39p9HujlOn003t7Ttz57aaZ/B3z+r7vKjg+YT5h69Vqq07TatltHZXXG/M7o/R/1eRHUdHuPQAAAAAAAAAAAAAAAAA7daXdLlbzzrTKzWWRaRlxSYqJVKsiK187EaqKsvLqqbV+3duannmn+qnVTI0HI+Hl7KrmqOyPy/qq9EY+R0H0N6GXPNNz8bO20WVE+1VjVP5afTOHlTt25blDtGiU23LbpkKkUSkwmwafT4LUayGxqfuqu9VXaq7VOCNS1LPvM+rOzqpqrqnbMylP0bRrXT7Wi3t6IoyqI2REboj6ed9s+FcwAAAAAAAAAAAAAAAAAAAAAAAAAAAAAAAAAAAABVc84v5XCQ8Vtn9+1QCX/AJHj8XXEI927A7xrQG+OAAAAAAAAAAAAAAAAAAAAAAAAANHjnfPzZtC3h3dHyfgAQDcol5ZWw/AK/Pg2GBbAAAAAAAA8LuUCic1m/ng6rvGVfXyongLcTl4fIv6BPBGa+UNRAmgAAAAAAAAAAAAAAAqqOcL8r1H8Wdmfw58CX7kdfijxEfdLLnvavgb7IAAB1H156Wm62tHeoXSe+8Vy+bnvbk1QFvVJJKitN7pex/bu5ljQO24dT0vbG+iBpj/Qdqf+0Pjfk7Z93gH0Han/ALQ+N+Ttn3eAfQdqf+0Pjfk7Z93gPm1jkhafSaRVap+sKjR/a2WjzHaf7vGN6/aYTonVx9vVwxwA0G6zT/amsVWldt7f7WTMeX7dh1ev2mK6H1sMVwxwxA3WNFXKASWrvSRpz1QP1yxbHfn3aFDup1npYrJ5KatYkmTnc6TC1mD23tfXw63Ubj5iAdnvoO1P/aHxvyds+7wD6DtT/wBofG/J2z7vAPoO1P8A2h8b8nbPu8A+g7U/9ofG/J2z7vAbX/CS4dsLhb6M7X0kQc0nZxMtutV6sffu6lJRli+3c8s52ruZJmbw7Xjhj2zb5iASYgANXHjIctnK8WjVdRtTkbVhEyTfSbRpNrfeg2021tHpTJ6enO6O6Fqcnh1+7cOp1NnV37QInfoO1P8A2h8b8nbPu8A+g7U/9ofG/J2z7vAPoO1P/aHxvyds+7wED/HH4DctwcLQ0/3TA1Ivz4XPCpVynuk3222g+13tPKysz1+slQne2ds7pwwwbhh04gdG+EBw44PFP1l0XSbHzVdk1Dq1vV6u/fsykpWlYtFgMjJB7mWalMe2dfDrds2eYoG2J9B2p/7Q+N+Ttn3eAfQdqf8AtD435O2fd4B9B2p/7Q+N+Ttn3eAfQdqf+0Pjfk7Z93gO02iLlCpLRzq409apWa44t9uyIuim3IlnLYzJBKl7Xxe29o7oSsx+1dbd1uo7DzAN0oAAAAAAAD8s9PSVMkpuo1GbhSFPkIb409PRojYUGDBhNV73ve9Ua1rURVVVXBEA0f8AjMc2dauT0/denHhnxqfmLmJIOjSN26nJmGydt6kx24wojKHLvxZPRmL/APuH4wUX0qRN6BX+ZrZwZ+asM15+/s3L6uLPPN++ZprY1ZqUzN1iqzseM/BkGC1Ve7DFerDhQ2o1NzURNgGwxoH5UPiOaupKjXvnLIyWjvKyqIyNBn7thRo1zzMu7B3WgUOXVsaHii7O6XwvqgbW+mnk9+F9lDKyE3nbUbx1PXNA6jpuJVau+36O+Iidl1JK3+0REaq9D5h+wCXrLzgocJrK2Wl5a0eH/lk1ZZEaycqVtylcmnI3d149aSbiOX/KcoGcncN7h7Ol1lXaGcolgKnVWH/d1aO70e4MQOu+ZvA34R+bcrMy13aA8uZeJMoqPqNGojLdnG49LY9AdJxE+uBCpqo5NTh95oydRqWmXMu79M11RGvdIU2NNNu23u2rtRr4FTVk21uO/qzK4dCAafPER5cjiQcPWVrV7VfLxmf2SFI68SPnBYzJipwJSWZt7bUKerEm5RqJtc90NYafbgQx5PZ05u6ecw7fzVySzFrGVOZNpxkjUK8KJPTFPn5aI1cVRIkBzVVq4YOY7Frk2KioBYh8ELmqbX1EVK0dLfEbqFOy7zmqToFPsLUSxsKn29csy7CFCgVaGnVhyM5EXBGxW4QYjtioxVTEN2Jj2RWMiQ3pEhxER0OI1UVrmqmKKipvRQPYAAAAAAACrb5zHyrlheJ61PlDcAEoXI5/F3iL/wBty1/oLjA34gI++I9xK9M3DByEqWeOom50gxprtsvl1ltJvhvr101VsPrtlJGA5U2JiixYrsGQ27XLuRQqkuKlxsdYvFUvyfi5oXXGsHIanTTolg6daLNRoVBkITXL2qLOInVWem8PTRoyLguKMaxuwDr1oX4Xmt7iM3Ytt6V8j6letLlIzYVw5iTLfa216Srl3zdTnOpAa5E29rarnr0NUDc50d8lNlvSpKlXDrm1O1G7ay5GRJ/LbL+BDptOhqqIroT6rVYUWPFwXYqw4EPzlA2A8m+XM4NmSsrKwqRoot++p2WRMaveEzU7qjxFanpnMq8xFgY/5MNAO69I4ZHDmoMq2SpWhLKKVlmp1Uhrl5asTZhhviyLl/dAxleHBn4Ul9rFdc3D6ypmosbHrzEvZ9JkIqY+Y+nwoLk+ooHZzS1o+016KMvKjlRpZylp2TeXlWqszW6hatMdNOlolUnIMGXjR/8Ae4sZyK5kvDbgi4IjdiAdlAAAAAAAAAAAAAAAAAAAAAAAAAAAAAAAD+MxMS8pLxpqajMlpaWY58xMPcjWMY1OsrnK7BERETap7y8uquqKaY2zO6H552dRl0TVVMRTEbZmd0Qhi1davpnMGYn8t8tp98rY0u50Kt1yG5WPqzmrgrGqmCpLov8Ap712Ha3R/o7Tp1NN5extz57aaZ/B3z+r7vKjb+YP5hq9Xrq07Tqpi1jsqqjfmd0fo/6vIjyOjHIQAAAAAAAAAAAAAAAAAdvtLelus55VhlcrjItJy3pUVEqVTRFa+eiMXFZeXVen7d+5qeeac6q9VcnQcn4WVsquao7I/L+qr0Rj5HQvQvoZc80XPxs/bRZUT7VWNU/lp9M4eVOzb1vUS1KLTrdt2mwqRRaTCbBp9PgtRkOGxqeYm9V3qq7VXapwVqOo593n1Z2dVNVdU7ZmcUp2kaRbWFtTb29EUZVEbIiN0Q+yfEuQAAAAAAAAAAAAAAAAAAAAAAAAAAAAAAAAAAAAAAVXPOL+VwkPFbZ/ftUAl/5Hj8XXEI927A7xrQG+OAAAAAAAAAAAAAAAAAAAAAAAAANHjnfPzZtC3h3dHyfgAQDcol5ZWw/AK/Pg2GBbAAAAAAAA8LuUCic1m/ng6rvGVfXyongLcTl4fIv6BPBGa+UNRAmgAAAAAAAAAAAAAAAqqOcL8r1H8Wdmfw58CX7kdfijxEfdLLnvavgb7IAAAAAAAHHLx+KN0+5s93s8ChOvL433V7pT3fTwLpvgteSW4dXiisj4EggScgAAAAAAAAAAABolc8H+KLQF4SXv8GUwCDvlDPLI2Z4vr77ygAWvIAAAAAAAAAAAAfKrtdotr0Sr3JclWl6Db9Alo85W63NxocvKykpLQ1jRY0aLFVGsYxrVc5yrgiIBWK8wbzHd5607iu/SFouuubs3SHRY0WQvjMCSiRZSo5jRoL1hxE67Fa+HScU7CEmCxvTP7HBqBA3w3OF/qn4omdctlFp0tJXUqmOgxcyM1J9kWFbtryER2Cx52Ya1cXuRF7VAZjEiKmDUwxVAtKOFdwF9EvC6tykV207SgZv6kHQGpcmom4ZSBHqjY7m/yjKTAf14dOgY4oiQv5Ryene4CbsAAAAAAHpEhw4sN8KKxIkKIitiQ3Iitc1UwVFRd6KBql8ZDlfNNmuOl3VndpDpVL026rXMjTkxTpOC2Ts68JnBYiw56Ul2oyUmYq7pqC1EVVxiNd6ZArJM/wDT9nJpYzdvLIzPqwp/LXNOwJt8pcdr1CEsKNDe1cWRIbk7GJCiNwfDisVWvaqOaqooG7ny0HMQVen1mxeHXrpvl1RodTdApWmfPSrTCujSUwuEKXoFVmY64uhP2Mk471xauEJy9VW9ULB8AAAAAAACrb5zHyrlheJ61PlDcAEoXI5/F3iL/wBty1/oLjA3FdfWuXJTh2aYMw9UGelWSVtqzYHa6BbsJ7EqFfrcw1zZOmSTHr2UaO9MMdzWo57uxaoFOPxFeIdqF4mWpK6NQufdeiTU1UIkSVy/sGBEiOpNr0RIqul6dIQlXBGtRcYkTDrRH4udtUDZ34FfK01fUXSbQ1acRekz9mZL1RsCo5a6d0dGkK1c8q5EiwpqrPb1IsnJREwVkJuEWK3aqsaqdYLE3KzKfLLI+xLeyvyesKk5Z5eWnAbLW5ZlEkZenU6UgtTDCHBlmtairvc7eq7VVVAyCAAAAAAAAAAAAAAAAAAAAAAAAAAAAAAAAAAAB/CZmZeSlo85OR2SsrKsdEmZmI5GMhsYnWc5znYIiIibVPeVlVV1RTTG2Z3Q/LPz6Muia65iKYjbMzuiEL2rrV5M5jTE9lzlxPPlbDlnLDrNZhqrH1d7V2taqYKkuipsT1W9dmw7Z6P9HqdNpi8vI23E+7TP4P8AN9yNj5gvmFr1murT9OqmLSOyqqN+Z/k/6sexHudEuRgAAAAAAAAAAAAAAAAA7haWtLNYzwrEOv1+HFpOW1KiolQqKIrIk/EYuKy8uq/67/U+iab6rdVsnQsn4WVsquao7I/LH5qvRGPkdEdC+hVzzRcfHz9tFlRPbVjXP5afTOHlTrUCgUa1qNTret6mwqTRqTCbBp9PgtRkOHDamxEROnpVV2qu1TgrUNQzrvOqzs6qaq6p2zM75SmaTpNtYW1Nvb0xRl0RsiI3RD7B8a4gAAAAAAAAAAAAAAAAAAAAAAAAAAAAAAAAAAAAAAAquecX8rhIeK2z+/aoBL/yPH4uuIR7t2B3jWgN8cAAAAAAAAAAAAAAAAAAAAAAAAAaPHO+fmzaFvDu6Pk/AAgG5RLyyth+AV+fBsMC2AAAAAAAB4XcoFE5rN/PB1XeMq+vlRPAW4nLw+Rf0CeCM18oaiBNAAAAAAAAAAAAAAABVUc4X5XqP4s7M/hz4Ev3I6/FHiI+6WXPe1fA32QAAAAAAAOOXj8Ubp9zZ7vZ4FCdeXxvur3Snu+ngXTfBa8ktw6vFFZHwJBAk5AAAAAAAAAAAADRK54P8UWgLwkvf4MpgEHfKGeWRszxfX33lAAteQAAAAAAAAAAAAruuav44tRvK57m4Y2le8XS1j2xF7Rquvymx1atXqcNUd97kGNBXbLyy4LOYL2cT+TXYxyKGsdwnOFnnhxWtTdIyTyxgxLesKg9pqGdmbUSA6JIWzQ1i9Vz13NiTMbBWS8HHF7tq4Na5UC3+0S6IdPHD8yCtPTrpssmDaVl23Da6qVJWsfVK5UnMRseo1KZRqOjzMZUxVy7Gpg1qNaiIgduAAAAAAAAAACB/jl8FDKfiwZETtRodPkrM1eZayMeJktmr2tsJZ3taLG9papEYmMSTju2Mc7FYL167diuRwVFWZmW2YeReZt4ZWZlW7O2JmZlnVZml3Xbs010vOU6pU+OsKIxelFa5uLXJsVMFRcMALRLlgeMdN8QHTlN6ZM+Lm9sdVmmeQloUSsTUVFm7utBqtlZSpOV64xJmWXqwJpdqr2ERdr1A2owAAAAAAVbfOY+VcsLxPWp8obgAk/5HeLDg2zxG40aI2FBhTeWzosVyo1rWtl7jVVVV2IiIBBVzJ3FoqnEZ1l1jLPLe5HzGlPTHOztDywkoEVVk67WIL1lqlXXI1eq/t0RiwpZ3RBaipgr3YhK3yu/AQpGc7ra4j+siy21PLKlTPb9MuU1TgI6Wr05KRVb7ez0CMmESUgxG4SsNydWI9FeqK1resFi81rWNaxjUaxqIjWomCIibEREQDyAAAAAAAAAAAAAAAAAAAAAAAAAAAAAAAAAAAB+eampaRlpidnZhkpKSjHRJqZiORkOHDYnWc5znYIiIiYqp+mVlVZlUU0xtmeyIjF+Wfn0ZVE11zEUxG2ZnsiIjGULOrjV3N5kzM9l3l1PPlLAlXqyrVeGrmRKu9i4KmOxUgIu5PVb12YIdt9IOj1GmUxeXkbbid0YUf5vuRqfMF8wmZrVdWn6fVNNpE7Kqo7JzJ/7P+rfPYj9OhnJQAAAAAAAAAAAAAAAAAdx9LGlar53VaHcVxQ4tJy1pcXCdnkxZFqERi4rAl1Xo+3f0bk2mmOq/VfJ0PJ+Dk7KrqqOyMKY4z6Ix8jovoT0IuOZ7iLi4iaLKie2d01zH4afTOHlTp0KhUe2KPT6BQKdCpNGpUJsGn0+C1GQ4UNiYIiIn7q9K7Tg2/v866zqs3NqmquqdszO+ZSlaVpVvY29ORkUxRl0RsiI7IiH1j41wAAAAAAAAAAAAAAAAAAAAAAAAAAAAAAAAAAAAAAAAAquecX8rhIeK2z+/aoBL/yPH4uuIR7t2B3jWgN8cAAAAAAAAAAAAAAAAAAAAAAAAAaPHO+fmzaFvDu6Pk/AAgG5RLyyth+AV+fBsMC2AAAAAAAB4XcoFE5rN/PB1XeMq+vlRPAW4nLw+Rf0CeCM18oaiBNAAAAAAAAAAAAAAABVUc4X5XqP4s7M/hz4Ev3I6/FHiI+6WXPe1fA32QAAAAAAAOOXj8Ubp9zZ7vZ4FCdeXxvur3Snu+ngXTfBa8ktw6vFFZHwJBAk5AAAAAAAAAAAADRK54P8UWgLwkvf4MpgEHfKGeWRszxfX33lAAteQAAAAAAAAAABBJzB3FLgcMPQxcVesmrQoGpHPRZm18hJLFrosnNRYH++1hWLjiynwX9dqrsWK6GnSoFSpknk5nBq8z/sbJvLamTeYOcmeFehSFIgve+NMTlSqUwr4sxMRX4r1W9Z0WNEcuxqOcq7ALlrhS8NPKLhbaS7M09ZcysCqXhMQ4VSzpzKSC1k3c1zRoSJMTD3KnW7RC/2UtDVewhonqlcqhJYAAAAAAAAAAAAGipze3CTp94WJKcT/I+2GwbzsRkpStUdMk4OC1KiOc2VkK49sNNsWUcrYEd+9YTmKuyGoGkRw8NamYfD51g5K6qsuZqL3dlxVYTroobIjmQ6zb80qS9Tp0bBcFZMS7nNTHc7qu3ogF21k7mvZWe+VGW+dOW9WZXbCzVolNr9oVaGqK2PT6rKMnIKrhjg7qxERydC4oBkgAAAAAKtvnMfKuWF4nrU+UNwAdKeGpxDZrQVwt+KdTrHri0fO7U9UsurEyyjwoismpOVnafcj6xUISt2osvJqrGuTdEiMUDBvA44ZdY4o+uyxsoKrLTELJGw0Zc+oS4YXWb2m3ZKO1O42xE9LGn4qtl4fSiK53qVAuSrQtG2LAtS27GsqhS1sWfZ8jK0y17ckoTYEpIyEjAbLQIEGGxERrIbGI1qJ0IByIAAAAAAAAAAAAAAAAAAAAAAAAAAAAAAAAAAAD883NyshKzE9PTDJSTlGOiTU1EcjIcOGxOs5znOwRERE2qfpk5NeZXFNMbap7IiMX43Fxl5OXNdcxTTTG2ZnsiIjGUKmrfV1N5mzU7l7l5Ovk8vpV6sqdUYrmRKu9i7d2CpARU2J6reuzBDt3pB0eo0umLu7jbcTujCj/N92CNL5gfmDzNcrqsNPqmmzidlVUdk5k/9nCMd8ugR0I5NAAAAAAAAAAAAAAAAADuXpW0q1bOyqwrluWFFpeWtLi/73OJiyJUYjFxWBAVej7d6btybTS3Vjqxk6Hk/BydlV1VHZGFMcZ9EY+R0f0I6D3HM2fFzcxNFlRPbO6a5j8NPdxnDdHanQodDpFtUmn0Gg06FSaPS4TYNPp8BiMhQobEwRERDg6+vs65zqs3NqmquqdszO+ZSj6ZplvZW9ORkUxRl0RsiI7IiIfVPkfeAAAAAB8ioXBQqTFZAqtalKbGiN60ODHmIUFzm44YokRyKqH2W+nXGdG3LoqqjuiZW+71a1t6vDm5lNEzxmI+9+JLytFd1005fQnZb+OfvOi3n9Ov9s+p80cx6f/Wo/dT63ul22qu65aev/GS/8c8zo93/AE6v2z6nr/8AQWH9Wj90et7pdVsLuuKRX0JuAv8A7RT/AEm6/p1eaXqNdsf6tH7o9b3S5bcXdcEkv/FwP4x5/wBMufyVeaXqNas/6lH7o9b3++K3/wDnsn/8VA/jFP8ATbj8lXml6/1i0/qU/uj1vb2/oX/OpT/4mD/GKf6fcfkq80q/6taf1Kf3R63lK7Q13VmUX/iIP8Yp/YZ/5KvNKv8Aqtr/AFKfPHrefbui7vbeVx8zuiF/GKf2Of8AlnzSr/qdt+enzw9vbmj/APNZb+fhfxin9lnflnzSr/qVv+enzw9vbelf8zl/56H/ABh/Z535Z80q/wCoW/56fPDz7aUz/mMD+eh/ZKf2mb+WfNL1/fZH5o88Pb2yp3/MIH87D+yU/tsz8s+ZX+9yfzR54eUqNPXdPwV/8Vn2Sn9tmcJ8yv8AeZP5o88PKT8iu6chL/4jPslP7fM4T5lf7rK/NHne3dkn/W4f8437I+DXwlX+5y+Med7d1Sv9Zh/6bfslPhV8JV+PRxjzv6tex6dZjke3zUVFT9w8TExvfpTVE7nsUVAAAAAAAAAAAAAAVXPOL+VwkPFbZ/ftUAl/5Hj8XXEI927A7xrQG+OAAAAAAAAAAAAAAAAAAAAAAAAANHjnfPzZtC3h3dHyfgAQDcol5ZWw/AK/Pg2GBbAAAAAAAA8LuUCic1m/ng6rvGVfXyongLcTl4fIv6BPBGa+UNRAmgAAAAAAAAAAAAAAAqqOcL8r1H8Wdmfw58CX7kdfijxEfdLLnvavgb7IAAAAAAAHHLx+KN0+5s93s8ChOvL433V7pT3fTwLpvgteSW4dXiisj4EggScgAAAAAAAAAAABolc8H+KLQF4SXv8ABlMAg75QzyyNmeL6++8oAFryAAAAAAAAAAernNY1z3uRjGIqveq4IiJtVVVQKebmJuIrOcQviO5oVa3a26o5G5BRpixsk5Vj1dKxZOkzL4c/UWIi4Ks9OJEiI9N8NIadCAbM3J08L+Ttiw7v4m2bFuo+575dO2xprgzULspOjS8RZerVaF102PmozVlYbk3MZEw2PA3tQAAAAAAAAAAAAAcGzNy4s3OHLq+cqcw6JBuSxMx6TP0S76DHaj4M3TqlLPlI8NyOx9Mx64L0LtApGuIzo7ubQPrW1CaUrlSLFTKqvzMC1arFarVqNvzeE9SpxPN7dKRoblw3OxToAsKOTu1tTWe+g2+dKd21hZ+8dIlcSFbEKK/rRls+5liz8m1Mdqtl5tkzDTzG9RPMA29gAAAAAq2+cx8q5YXietT5Q3ABqXdsidrWD117UrkcsPFer1kTDHDzcFAtluVi4fcpo24blqZt3TQ0kc59YboF5XXNRYaNmpa3nQ3Q6DJYqnWRiSzlmVb9tGXzANl8AAAAAAAAAAAAAAAAAAAAAAAAAAAAAAAAAAAD807OylOlJmfn5lknJSbHRZubiuRkOHDYnWc5znYIiIibVP1yMivNriiiJmqZ2REb5l+Fzc5eTlzmZkxTTTG2ZnsiIjGUKGrbVxOZpTc5l/l/NvksvJR6sqNQaqsi1iIxd67lSAi+lb6revQh2/0h6P0aVRF3dxE3M7owo/zcZwwRofMB8weZruZVYWFU02dM9s7pzJj/AAcIx3y6DnQLlAAAAAAAAAAAAAAAAAAO52lXSpVM66pCue54UWl5a0yLhMzKYsi1OKxdsCAq+p6HvTduTbu0p1Y6sZWh5XwMiYquqo7IwpjjPfwj0Okeg/QbP5mz4ubmJosqJ7Z3TXMfhp7uM4bo7d051FotJtylSFDoVPhUqkUuE2DT6fBYjIUKGxMEa1EOD72+zrnOqzc2qaq6p2zM75lKNpmmW9nb05GRTFGXRGyIjsiIh9Q+V9wAAAAAHXzUJqEtbIW1nVCoObUrpqbXttm2muRIkxERMO2RMNrYTV9M76ibTYnTrp3d8wXfgo9nKp96rhHCOMzhDUfV3q7Y8qWPxMz28+uJ8FGMzxnhTGM/VHagIzBzCurM+6ald94VN9Sq9Rcq7VVIUCEi9jChM3MY1NiIn75ILy7y7aaXaU29vT4aKfPM8ZnGZRN83c3X+uX9d3d1+PMq80RhERhEYQ4Vivml7Y089Z32y7N20bDa89sf9uv11KeGFfFJ2yIm56/XUeGFfHLz22L/AN67/SUeCDxzxeUjx03RnJ/nKU+HTwV+JVxee6I//fv/ANJ32R8Ongr8WrjLz3VM/wBYif6bvslPh08D41fGXnuua/rMT/Td9kfCp4Qr8evjPneyTs4m6bip/wCI/wCyU+DRwhX+4zOM+d57vnk3TsVMP/zH/ZHwKOEK/wB1mfmnzvPthP7+7Y2Pm9sf9kp/b5fCPMr/AHeb+afPLz7Y1DDBJ+Mif+9f9kp/bZf5Y8yv95nfmnzy9vbSppuqMf8Anon2Sn9rlfljzQRe535p88vZKvVk3VOYTHf/AC8T+MU/s8n8seaHqNQuPz1eeXOMvbYzDzOumm2fZ0WcqFXqLsERI8ZIUGGmHXixXY4NY1NqqpYuYtV07S7Sq4ufDTRT3RtmcIjjMso5Q0TWNcv6LSzmqrMq752RGMzOERjLYByJyigZL2FJ2mlbmbgqEV6zNaqcxGiRGPmojUR/aWRFXtcNMMERN+9dqkevPvONWt6hNx4Iop3UxERujdtnGf8A/EtXSzp7Ry1pVNr8SrNrmfFVVMzO2qd/hid0cI+ue1mYwpsgAAAAAAAAAAAAABVc84v5XCQ8Vtn9+1QCQbk3tU2mjTnYOuqUz/z/ALNyUmrprFjxLal7quSkUB9QhyslV2xnS7apHgrESGsRqOVuOGKY7wN1n9Z5w4f088n/AMotp+zgH6zzhw/p55P/AJRbT9nAP1nnDh/Tzyf/ACi2n7OAfrPOHD+nnk/+UW0/ZwD9Z5w4f088n/yi2n7OAfrPOHD+nnk/+UW0/ZwD9Z5w4f088n/yi2n7OAfrPOHD+nnk/wDlFtP2cA/WecOH9PPJ/wDKLafs4B+s84cP6eeT/wCUW0/ZwD9Z5w4f088n/wAotp+zgH6zzhw/p55P/lFtP2cA/WecOH9PPJ/8otp+zgH6zzhw/p55P/lFtP2cA/WecOD9PPJ/8otp+zgO6dDrdGuai0e5LcqsvXbeuCVl56hVyTjQ5iUnJObhNjwI8CLCVzIkOIx6OY5qqioqKmwD6gAAAAAANHjnfPzZtC3h3dHyfgAQDcol5ZWw/AK/Pg2GBbAAAAAAAA8LuUCic1m/ng6rvGVfXyongLcTl4fIv6BPBGa+UNRAmgAAAAAAAAAAAAAAAqqOcL8r1H8Wdmfw58CX7kdfijxEfdLLnvavgb7IAAAAAAAHHLx+KN0+5s93s8ChOvL433V7pT3fTwLpvgteSW4dXiisj4EggScgAAAAAAAAAAABolc8H+KLQF4SXv8ABlMAg75QzyyNmeL6++8oAFryAAAAAAAAAAQ4ce3WxF0IcL3UfmxQap7VZj3lT22XlPHa7qxmV26EdINjw+nrS0usaYRU3drAqFdLeQN5asdSWSenOxoTpq787bnpVApkVcX9qdUpxkKLMP3r1YUNXRHr5jVUC8Z0+5IWLpqyPynyAyzpjKRYWT9Aplv2vJMajf8AdqbKslkiPw3xIitV716XKq9IGYAAAAAAAAAAAAAAAK8jnXtIMpRMwNK+uC3aYkH7+ZOdsDMuchswR87SkdVqTFiuTe98CLMQ8V6IbU6AIuuUl1MTGRvFltTLSbqKylraoLZrlp1KVV2EKJUpSB98FOcqKuHWSJJOht/94qdIFr4AAAAAFW3zmPlXLC8T1qfKG4ANfXh56YahrN1u6YdMcjDe+Bm9eFIpteisarlgUdswk1UYy4bkhykKK7HzgLxW3Lfo9pW/QrVt2Qh0q37Zk5Wn0KlwWoyFLSclAbLQYTGpsRrGMRqJ5iAfZAAAAAAAAAAAAAAAAAAAAAAAAAAAAAAAAAAB+WenpOmSc1UahNQ5KRkobos5ORXIyHChsTrOc5zsERERNqn65GRXm1xRREzVM7IiN8y/C6usvIy5zMyYpopjbMz2RERjKE3Vrq4nc1JybsKwZyJI5dSb1bOzzFcyJWIjF9M7cqQEVOxb6revQidxdIuj+XpNEXV3EVXMx2RhR/m4zhuhGZ1/+YLN17MqsbGqabOme2d05kxx/TwjHfLoWb+cqAAAAAAAAAAAAAAAAAB3S0p6UqpnTU4V1XTCi0vLSmRf5eOmLItTisXbBgqvqOh703bk27tJdWerOVomVORkTFV1VH1URxnv4R9e50n0G6C5/MufF1dRNFlRPbO6a5j8NPdxn6o7d05dGo1Kt6lSFEokhCpdJpcJkGn0+CxGQoUJiYI1qIcI3t7m3ObVm5tU1V1TtmZ3zKUXTdNyLPIpycimKMuiNkRHZERD6Z8r7QAAAAAOvOobUNa+Qtrunp5zanddTY9ts2012ESPETZ2yJhtbCavpndO5NpsXpz06uuYLrw0+zk0+9Vw7o4zOENQ9Xur1jypY+OvZXcVx7FGMzxnhTGM/VCAm/8AMC6szboqV33hU3VOsVJ2LnLshwYaL2MKEzcxjU2IifvkgvL3L1ppdrTb29Phop88zxmcZlE5zZzbf63fV3d3XNeZX5ojCIjCIwhwsvbGwAAAAAAAAAAAAAAABzjLvLu6s0rqp1n2fTXVGq1B3ZKiKkKBCRezixXbmsam9VLFzHzHaaVaVXFxV4aKfPM4RHGZZRyfyff67f02lpT4syrzRGMzOERin60/6fbTyGtZtMpcNtRuWotY65bncxEizMREx6jMdrITV9K36q7SPnqH1Du+YLvx1+zlU+7RhEcZ4zOMpZOkvSOw5Usfh5XtZ9Xv141TwjhTGEfXPaz8a9bZAAAAAAAAAAAAAAAKrnnF/K4SHits/v2qAaqcKWmI6OWBLvjI30ysY52Ho4IB/b2uqH9RjfzT/sAPa6of1GN/NP8AsAPa6of1GN/NP+wA9rqh/UY380/7AD2uqH9RjfzT/sAPa6of1GN/NP8AsAPa6of1GN/NP+wA9rqh/UY380/7AD2uqH9RjfzT/sAPa6of1GN/NP8AsAPa6of1GN/NP+wA9rqh/UY380/7AD2uqH9RjfzT/sAPa6of1GN/NP8AsAPa+of1GN/NP+wBeeaC0VuhnRg1yK1zcp8ukc1dioqWfTwO2AAAAAAANHjnfPzZtC3h3dHyfgAQDcol5ZWw/AK/Pg2GBbAAAAAAAA8LuUCic1m/ng6rvGVfXyongLcTl4fIv6BPBGa+UNRAmgAAAAAAAAAAAAAAAqqOcL8r1H8Wdmfw58CX7kdfijxEfdLLnvavgb7IAAAAAAAHHLx+KN0+5s93s8ChOvL433V7pT3fTwLpvgteSW4dXiisj4EggScgAAAAAAAAAAABolc8H+KLQF4SXv8ABlMAg75QzyyNmeL6++8oAFryAAAAAAAAAAV6nO06pI89fOkHRtR6j/uNvU6p5g3xIMeuDpqox3UKlpEanSyHLTTkx+3A6R8nBpQl84uIfmBqOr1OSboGlW0o0eiRYkPrQ23HdT30iVVFVMOsyVZNuTpRcFAtBwAAAAAAAAAAAAAAAGvTzRmQ0vnhwbdR8+2TSZrOSMzQb4okXqoroXtRVIcrNuRd6J3HNxsQKurh05wTOQOvTR3nJLR3S393+Y9oT83EavVXuRtbl4Uy3FOh0F72r6IF5Uio5Ec1cUXaipuVAPIAAAAq2+cx8q5YXietT5Q3AB9fk19O0DM7iTZh541OSSZpum6w5+ZpkdzUVIVZueZZRICpj6ruburAC0NAAAAAAAAAAAAAAAAAAAAAAAAAAAAAAAAAAAA4ZmDYtDzKs+uWTcbYq0iuwVhTDoMR0KKxUVHNe1zVTa1yIuC7F6UL1y7r2fpl7Rc5Ozx0TtjbG2GN83crWutadmWVxt+HmRsnZOyY4THkn6uLX1z4yHuvIm7YtCrcN07RZxXPty42tVIM5ARfrNiN3Pb0ehgpIfyDz9aa/Zxm5XZXHvU40z6Y4SiO6q9K7/lXUJyM+PFlVdtFeFUeiYxj0MGGeNXgAAAAAAAAAAAAAAADuvpS0oVPOaowLtu6DFpmWlOidnE2w4tUiw12wYK70Yi7HvT0E27tH9WureVomXNvbzFV1VHliiOM9/CPrnsdL9BegefzJnRd3cTRZUz5JzJjCnu4z9Udu6cej0el0ClyNFoshCplJpkJkGQkILEZChQmJgjWtacJ3l5m3GbVm5lU1V1TtmZ3zKULT9PyLTIpycmmKMuiNkRHZERD6R8z7AAAAAAOu+ofURa+QtsOnJ1zKpdtUY9Latpr0R8Z6bO2RcNrYTV3r07k2mx+nPTm65guvDT7OTT71XDujjM/8Zae6wdYLHlSx8deyu4rj2KMZnjPCmMZx3QgKv6/rpzMumpXfeFTfU6zU3YveuyHChp6WFCbuYxqbEahIJy/y/aaXa029vT4aKft754zKJ7mzmy+1u+ru7uua8yvzRGERGERhDhhemOAAAAAAAAAAAAAAAADneXGXF15qXXTrPs+nOqFVn3dm/akKXgoqdeLFfuaxqLiqr9TaWDmXmW00m0quLirw0U+eZwiOMyynk3k2/16/ptLSnxZlXmiMZmcIhP1kDkBaeQ1qtpVIY2oXFUGsdctzPYiRpqKielb0shNX0rfqrtI+eoPUK71+7+Jmezl0+7ThEemZxn0JZek3SXT+VLD4WVHizqvfrnfVPCOFMYR9c9rPZr9tcAAAAAAAAAAAAAAAAVXPOL+VwkPFbZ/ftUAlg5JK1LWuTLziAPuK2qfX3ylasJJV07Jy80sJHyNZVyMWOx3VxwTHADer/utyy+bqg+9FP8AWgH91uWXzdUH3op/rQD+63LL5uqD70U/1oB/dbll83VB96Kf60A/utyy+bqg+9FP9aAf3W5ZfN1Qfein+tAP7rcsvm6oPvRT/WgH91uWXzdUH3op/rQD+63LL5uqD70U/wBaAf3W5ZfN1Qfein+tAP7rcsvm6oPvRT/WgH91uWXzdUH3op/rQD+63LL5uqD70U/1oB/dbll83VB96Kf60A/utyy+bqg+9FP9aA5tAgQJWBBlpaCyXlpdjYcvLw2oxkNjE6rWta3BERETBEQD+oAAAAAANHjnfPzZtC3h3dHyfgAQDcol5ZWw/AK/Pg2GBbAAAAAAAA8LuUCic1m/ng6rvGVfXyongLcTl4fIv6BPBGa+UNRAmgAAAAAAAAAAAAAAAqqOcL8r1H8Wdmfw58CX7kdfijxEfdLLnvavgb7IAAAAAAAHHLx+KN0+5s93s8ChOvL433V7pT3fTwLpvgteSW4dXiisj4EggScgAAAAAAAAAAABolc8H+KLQF4SXv8ABlMAg75QzyyNmeL6++8oAFryAAAAAAAAAAU9nMu55xs8+Mrq4mWzizdJysnKVZFEZ1sWwmW1SZeUmWNTcn+9ujqvnqqgbiPJjZDQbC4c2beeUzJdqq2fmYc8yVnVbg6LSrVkYFLgoi/apMxZr6uIG4EAAAAAAAAAAAAAAAA6RcSywpfNDh6a3LBmIKTDblysvmBBhKmKdvbbs3Fgrh50RjVAo96JUI9JrNIqsrE7VNUyal5iWipvbEgxWxGr9RUAvoMn7ibeGUmVt2sXrMum3KJUWuxxxSepkGZTb/ngZFAAAAFW3zmPlXLC8T1qfKG4AJO+R0lZZaPxFZ1ZdizjJnLaE2a6qdsSE6FcL1Z1t+Cq1FwA36QAAAAAAAAAAAAAAAAAAAAAAAAAAAAAAAAAAAAGPszssbSzbtKfs+8Kek5T5xOtLTCYJHlY6IqMjQXepe3H6u5dhkXK/NF5o95TcW9WyqN8YTGMT3SxHnfkjT+YNPqtLunxUVbpxpnCqmcJj/hPYgAz2yKuvIm7YtBrsNZykTivfblxMYqQJ2Ai/WbEbjg9vQvnYKSE8hc+2mvWcZuV2Vx71ONM+rhKJbqn0tv+VtQnIz48WXV20V4VR6JjGPQweZ01iAAAAAAAAAAAAAA7v6T9JtQzjn4F43lAi03LWnxNidlDi1aIxdsKEuxUhoux709BNu7RfVvq5l6LlzbW0xVdVR5YojjPfwj65dOdA+gWdzHmxeXkTRZUz5JzJjCP08Z+qO3dODSqVTaHTZKj0eRhU2l02EyDISEFiQ4UKExOq1rWt2IiIcLXd3m5+bOZmTNVdU7Zmd8yk+sbHJtcmnJyaYoy6I2REdkREYQ+gfO+sAAAAADrlqK1FWzkJbCzMyrKreFVY9LatpHdlEeiYdtjYbWwmrvXp3J52yem/Te65guvDT7OTT71XDujjM/ZvlpzrD1iseVLLxVbK7iuPYo4988KY+3dCAy+78ujMm56nd931N9UrVUf1osV2xkNielhw27msamxrUJA9A0C10y1pt7enw0U/b3zxmeKJ7mrmq+1q+ru7uua82ufqiMIiMIjCHDy8seAAAAAAAAAAAAAAAAHPstctbszXuynWfZ9PdPVOedjFiqipBloKL2caM/DBrGpvX6ibTH+ZuZrTSbSq4uKtlMeeZwiIxmWV8l8l3+vX9NpaU+KurzUxjMzhEJ+sg8grTyHtVlHo0Ns/X59rHXLcr2IkabjInpW47Wwmr6Vn1V2kfHUDqDea/d/EzPZy6fdpwiPTM4z6Es3SjpPp/Kth8HJ9rNq9+ud9U+imMI8/azwYC2oAAAAAAAAAAAAAAAAAFVzzi/lcJDxW2f37VAJf+R4/F1xCPduwO8a0BvjgAAAAAAAAAAAAAAAAAAAAAAAADR453z82bQt4d3R8n4AEA3KJeWVsPwCvz4NhgWwAAAAAAAPC7lAonNZv54Oq7xlX18qJ4C3E5eHyL+gTwRmvlDUQJoAAAAAAAAAAAAAAAKqjnC/K9R/FnZn8OfAl+5HX4o8RH3Sy572r4G+yAAAAAAABxy8fijdPubPd7PAoTry+N91e6U9308C6b4LXkluHV4orI+BIIEnIAAAAAAAAAAAAaJXPB/ii0BeEl7/AAZTAIO+UM8sjZni+vvvKABa8gAAAAAAAAPV70hsfEd6ViKrvQRMQKK3XFmHHza1nasczZiYWaffeY96VSHHVcetCm7im40Pb04MVEAsbuBLxUOFbpE4VGknJDNLWzYeX2aFDpNSn8w7QnqhFhTkjVKzXp2qPhR2NguRIjWR2I5MegCXP9fVwc/2hmXPvpH9YAfr6uDn+0My599I/rAD9fVwc/2hmXPvpH9YAfr6uDn+0My599I/rAD9fVwc/wBoZlz76R/WAH6+rg5/tDMuffSP6wA/X1cHP9oZlz76R/WAH6+rg5/tDMuffSP6wA/X1cHP9oZlz76R/WAH6+rg5/tDMuffSP6wA/X1cHP9oZlz76R/WAH6+rg5/tDMuffSP6wA/X1cHP8AaGZc++kf1gB+vq4Of7QzLn30j+sAYmz745XCDuzIvOi1qRr+y8qlVuW07jp9MpkOpRnPmJico8xLw4TU7QmKvc9ERPPAp1EVWqi9KKBetaJZt8/oy0jz0RyvfOZY2DFe5d6rEtWReqr9cDs6AAAAKtvnMfKuWF4nrU+UNwAShcjn8XeIv/bctf6C4wN+IAAAAAAAAAAAAAAAAAAAAAAAAAAAAAAAAAAAAAAx3mhlfaObtpT9n3hIJNyE2iulZpqIkxKR0TBsaC9U7F7frKmxdhkfK3NN5o95TcW9WyqN8YTHCY4MP545H0/mHT6rS7p8VFW6caZwqpnCY+3dPY1/888jLsyLu6Nb1wQlmqXNK59u3CxqpAnZdF2Kn2r27ns3ovnYKSFch892mvWcZ2VOyuPepxpn1cJRK9Uel+ocrahNvnxty57aK43VR6JjGMPIwmZw1oAAAAAAAAAAADvJpO0mT+cE9AvS9ZeLTstqfE/k4XZQ4tWisXbDhrsVISKmD3p6CbdqaJ6udXcvRsuba2mKrmqPLFEcZ7+EfXLqDoF0BzeYs2Ly8iabKmfJOZMYR+njP1R3TfU2m0+jU+TpVKk4dOptOhsgyMjBYkOFChQ06rWta3YiIhwvdXWZn5k5mZM1VVTtmZ3zKTuyssm2yacrKpimimNkRHZERGEP3H4PqAAAAAA636jNRls5C2ysaOrKredVY5LbttHdk927t0bDa2E1d6713J52y+m3Ta65gutkezkU+9V6I4zP2b5aZ6x9Y7LlSy8U7K7muPYo4/qq4Ux9u6EBt83zc2Y1z1O7ruqb6rWqq/rR4717FjU9LDht3NY1NjWpuJAtB0G1021pt7enw0U/TbPGZxlFBzRzRfaze13d3XNebXPbPDhERhEYQ4iXhj4AAAAAAAAAAAAAAAAyBlnlndmbN2U+z7Pp6ztRnVRY8dcUgSsFF7KNGf6ljU+vuTaY9zPzPaaRaVXFxVspjzzPCOMyy3knknUNf1Cm0tKfFXVvnCmMapnCIT+ZDZC2lkRajKLQ4STtcnmsfclyvaiR5yMibk+1htX0rE3b127SPfn/AJ/vNfu/i5vZlx7tOFMemZxn0JZulXSnT+VbD4ORHizavfrnfVPopjCPSzoYG2kAAAAAAAAAAAAAAAAAACq55xfyuEh4rbP79qgEv/I8fi64hHu3YHeNaA3xwAAAAAAAAAAAAAAAAAAAAAAAABo8c75+bNoW8O7o+T8ACAblEvLK2H4BX58GwwLYAAAAAAAHhdygUTms388HVd4yr6+VE8BbicvD5F/QJ4IzXyhqIE0AAAAAAAAAAAAAAAFVRzhfleo/izsz+HPgS/cjr8UeIj7pZc97V8DfZAAAAAAAA45ePxRun3Nnu9ngUJ15fG+6vdKe76eBdN8FryS3Dq8UVkfAkECTkAAAAAAAAAAAANErng/xRaAvCS9/gymAQd8oZ5ZGzPF9ffeUAC15AAAAAAAAAcVvqovo9kXjV4burEpdKqEyx3mLAlIkVF/1QKFC7Jx1Qum5Z969Z09UJyM53mrFmHv/AOkDm8jkRnjU5KUqNNyauuoU+fhsjSM/At2rxYMaDEaj2Phvhy6tc1yLiiouCoB+r/D1n78x14fgzWvYwD/D1n78x14fgzWvYwD/AA9Z+/MdeH4M1r2MA/w9Z+/MdeH4M1r2MA/w9Z+/MdeH4M1r2MA/w9Z+/MdeH4M1r2MA/wAPWfvzHXh+DNa9jAP8PWfvzHXh+DNa9jAP8PWfvzHXh+DNa9jAP8PWfvzHXh+DNa9jAP8AD1n78x14fgzWvYwD/D1n78x14fgzWvYwD/D1n78x14fgzWvYwD/D1n78x14fgzWvYwD/AA9Z+/MdeH4M1r2MA/w9Z+/MdeH4M1r2MBd76IJSakNFukKRnpaJJT0llfYEGck4zHQ4sGLDtOQY9j2PRFa5qoqKipiigdoQAAABVt85j5VywvE9anyhuACULkc/i7xF/wC25a/0Fxgb8QAAAAAAAAAAAAAAAAAAAAAAAAAAAAAAAAAAAAAAAxzmllbaOb9oz1n3hIJNSUyiuk5xuCTEnMIioyNBd6lzfrKmxdhkvKnNd5o15Fxb1bKo3xhVHCe5hvPXIun8xafVaXdO2md040zhVTOEx9u6Wv8AZ45HXbkXd0a3bhhLM02ZV0S3rhY1UgT0ui4I5N/Vem5zF2ovnYKSE8ic92evWcZ2TOyqPepxpn1cJRLdUOl+ocrahNvcRtontorjdVHomMYwYWM3a1AAAAAAAAAHejSbpKns3J6Wve+JaJIZbyMTGBAXrQ4tXiMdtZDXYqQkVMHvTfuTbiqaG6udXsvR6JtrWYquao+qiOM9/CPrl1H0B6AZvMObF7exNNlTPZG6cyYwj9PGfqjum7ptOkKPISdKpcnDp9Np8NkGRkYLEZChQobeq1rWt2IiIhw1c3OZnZk5lczVVVO2ZnfMpObOzyrfKpysqmKaKY2REdkREboiH7T8H0gAAAAAda9R2o+2shLbV8RWVa9asxyW5baOTFV3duj4Li2E1fquXYnnbN6a9NbrmC52RtpyKZ9qr0Rxmfs3y0t1l6y2XKlltnZXc1x7FH+KrhTH27oQH3ve9zZiXLU7tu6pvqtbqr+tMTDtjWt9SxjdzWNTY1qbEQkB0LQrXTbWm3t6fDl07o9M8ZnGUUXM3M97rF7Xd3dc15tc9s/dERhEYQ4mXdYAAAAAAAAAAAAAAAABkLLHLG7c27tkLPs+QWbn5tetMzLsUgSsBF7ONGd6lrf3dybTHOaOabPR7Oq4uKtlMboxmeEd7L+SOSNQ5g1Cm0tKfFXVvnCmMaqpwiP+Cf3IjIe0sibUh0OgwknKzOox9x3I9iJHnY6J9Xqw249gxNiejipHvz7z9ea/d/FzZ2UR7tOFMemeMpZ+lnSvT+VbCMjIjxZlXv1zvqn0RGEelnEwVs8AAAAAAAAAAAAAAAAAAACq55xfyuEh4rbP79qgEv8AyPH4uuIR7t2B3jWgN8cAAAAAAAAAAAAAAAAAAAAAAAAAaPHO+fmzaFvDu6Pk/AAgG5RLyyth+AV+fBsMC2AAAAAAAB4XcoFE5rN/PB1XeMq+vlRPAW4nLw+Rf0CeCM18oaiBNAAAAAAAAAAAAAAABVUc4X5XqP4s7M/hz4Ev3I6/FHiI+6WXPe1fA32QAAAAAAAOOXj8Ubp9zZ7vZ4FCdeXxvur3Snu+ngXTfBa8ktw6vFFZHwJBAk5AAAAAAAAAAAADRK54P8UWgLwkvf4MpgEHfKGeWRszxfX33lAAteQAAAAAAAAGPc3PxU5neD1a+DYwFCxVf/qlS/tEb+kUC8N4aa48O/Qzjt//AOS5ffJaSA7uAAAAAAAAAAAAAAAAAAAAAAAAFW3zmPlXLC8T1qfKG4AJQuRz+LvEX/tuWv8AQXGBvxAAAAAAAAAAAAAAAAAAAAAAAAAAAAAAAAAAAAAAAABjfNTKu0c4LRnrQu+RSYlJhFdIzzcEmJOYRMGxoLl3OTpTcqbF2GS8p82XmjXkXFvOyY3xhVHCfp2MM585D0/mLT6rS7p20zunGmcKqZ4/fulr/Z4ZIXbkZd0e3LigrM0+YV0S37gY1Ul56XRdjmrtwem57d6L52CkhXIvPVnr1nGdkzsqj3qcaZ9XCcUS3U/pjqHK+oTb3EbaJ7aK43VR6+MYMMGbNbAAAAAAAO9mkzSTPZtTsrfN9S0SQy4kYnWlpVetDi1eIxfSMXYqQUVOyem/cnSqaE6u9XsvSKJtbWYquZjtnfFEcZ/Vwj65dS9Afl/zeYM2L2+iabKmeyN05kxhH6eM47oTcU+nyNJkZSmUyUhyFOkIbIUlJQWNhwoUJidVrWtbgiIiIcN3NzmZ2ZNdczVVVO2ZnfMpOLS0yrfKpysqmKaKY2REdkREboiH7D8X0AAAAAAdZ9SGpG28hbcVVWHV73q0N33u24j9uOCp2+PhtbCav1XLsTzU2d006aXPMFz+XIpn2qvRHGZ+zFpTrN1nsuVLPCu6rj2KP8VXCmPt3QgRvW9blzCuWp3bdtUfVq5Vnq+ZmXrsanqWMamxrGpsa1NiISA6Jolrp1rTb29MU5dMdkemeMzjKKLmXmW91e9ru7qua82udszP3RwiMIcVLssQAAAAAAAAAAAAAAAAyJlflfdubt2yFn2fILNT00qOm5tyKkCUgIuDo0ZyIvVa366rsTaY3zVzVZ6PZ1XFxVspjdGMzwjvZhyNyNqHMOoU2lpTtqnfOFMY1VThEfbuhP8AZF5FWjkTacKg2/CSbq02jX3HccRqJMTsdE/1YbfUMTYieauKke/PnPt5r138XNnZRHu04Ux6Z4ylo6W9LNP5W0+MjIjxZlXbXXO+qfREYRh5WbjBmzQAAAAAAAAAAAAAAAAAAAAFVzzi/lcJDxW2f37VAJf+R4/F1xCPduwO8a0BvjgAAAAAAAAAAAAAAAAAAAAAAAADR453z82bQt4d3R8n4AEA3KJeWVsPwCvz4NhgWwAAAAAAAPC7lAonNZv54Oq7xlX18qJ4C3E5eHyL+gTwRmvlDUQJoAAAAAAAAAAAAAAAKqjnC/K9R/FnZn8OfAl+5HX4o8RH3Sy572r4G+yAAAAAAABxy8fijdPubPd7PAoTry+N91e6U9308C6b4LXkluHV4orI+BIIEnIAAAAAAAAAAAAaJXPB/ii0BeEl7/BlMAg75QzyyNmeL6++8oAFryAAAAAAAAA4JmlAfNZZZjSsNMYkzQavDhp/1n0+K1P3wKFatwnQK1V4D/TQZqYY70WxXIBd9cMCeg1PhxaEp6A5HQo+UlgKxU3djbEm1f3UA71AAAAAAAAAAAAAAAAAAAAAAAAFW3zmPlXLC8T1qfKG4AJQuRz+LvEX/tuWv9BcYG/EAAAAAAAAAAAAAAAAAAAAAAAAAAAAAAAAAAAAAAAAADGua2VNo5xWjO2jd8ikeWjorpCfaiJMScwiYNjQXLucnSm5U2KZPylzbeaNeRcW87JjfGFUcJ+nYwvn3kLT+YtPqtLunbTO6caZwqpnj9+6Wv8AZ3ZI3bkbd0e27jgLHkI6uiUCvsaqS89LouxzV6HJue3ei+dgpITyNzzZ69ZxnZM7Ko96nGmfVwnFEr1O6ZahyvqE29xG2ie2iuN1UcY7+MYMNGatcAAAAA746S9JE7mvNyl+X5LRJHLqTidaTklxhxavEYu1rdypBRdjnJv3J0qmgurvV+jSKJtbWYquZjtnCj/NwjDfLqnoB8v2br+ZF9fRNNnTPZG6cyYwj9PGcd0JtJCQkqVJSlNpspDkKfIQ2QpKShMRkKFCYnVa1rW4IiIibEOHbi4zM3MmuuZqqqnbMzvmUmlpaZWRlU5eXTFNFMbIiOyIiMIfrPxfQAAAAAB1i1J6lbcyFt5WMWHV77q0N33vW71vS9Hb4+C4thNX6rl2J0qm0emfTK55guNvbTb0z7VXojjP3NIdaOtNnypZ7I2V3VcexR/iq4Ux9u6ECt53ncmYFx1O67sqkSr1urPV81NRF2InQxjU2NY1NjWpsRDv/RdFttPtqbe3pinLpjsj0zxmcZRS8x8yXurXtd1dVzXm1ztmZ+6OERhGDixdVjAAAAAAAAAAAAAAAAGRsrcrbuzeu2QtC0JBZmcmlR05OuRUl5OXRezjRnJua366rsTaY1zVzVZ6PZ1XFxVspjdGMzwjvZjyLyLqHMOoU2lpTtqnfOFMY1VThEfbuhP9kZkZaORVpQrft6Ck1VZtGvuK4ntRJidmETaq/asbuYxNiJ5+Kke/PnPl5r158bOnZRHu04Ux6+MpaOl3S3T+VtPjIt425k9tdc76p9ERhGHlZsMHbMAAAAAAAAAAAAAAAAAAAAAAKrnnF/K4SHits/v2qAS/8jx+LriEe7dgd41oDfHAAAAAAAAAAAAAAAAAAAAAAAAAGjxzvn5s2hbw7uj5PwAIBuUS8srYfgFfnwbDAtgAAAAAAAeF3KBROazfzwdV3jKvr5UTwFuJy8PkX9AngjNfKGogTQAAAAAAAAAAAAAAAVVHOF+V6j+LOzP4c+BL9yOvxR4iPullz3tXwN9kAAAAAAADjl4/FG6fc2e72eBQnXl8b7q90p7vp4F03wWvJLcOrxRWR8CQQJOQAAAAAAAAAAAA0SueD/FFoC8JL3+DKYBB3yhnlkbM8X1995QALXkAAAAAAAAB+OoSsOekJ6Sit68KcgxYUVnmtiMVip9ZQKGvPq05mws8857GnWLDnLMuy4qTNw1TBWxKdWJiTcip0YLDAuMOA1f8HMrg+8P+4oMZIzpLL6nUWZfjivbrdjxqA9F8/GTAlwAAAAAAAAAAAAAAAAAAAAAAAAKtvnMfKuWF4nrU+UNwAShcjn8XeIv/AG3LX+guMDfiAAAAAAAAAAAAAAAAAAAAAAAAAAAAAAAAAAAAAAAAAAAxnmxlPaOcdozto3dJJGl4yK6nVFiIkxJTCJg2NBcu5U6U3KmxTKOUebrzRbyLi3nZMb4wqjhP07GFc/cg6fzHp9Vpd07YndONM4TTPH790tf7OzJO7sjrvmLauSAsaSjK6JQa8xqpLz0v1sEe1V3OTc5u9F+opITyPzxZ67ZxnZM7Ko96nGmeHk4TiiV6m9M9Q5X1Cba5jbTPbRXG6qOMd/GMGHDNGuQAB320k6RpvNOalL+v+ViSWXcnER0hT3I6HFrERi7k3KkBFTBzk9NuTpU5/wCr3WCjSaJtLSYm5nfOFH+bhGG+XVvy/wDy+5mvZlN9fxNNnTPZG6cyY/w8Zx3QmwkZGTpknK06nSsOSkJKG2FJycJqMhwobE6rWta3BERETYhw/n59ebXNdczNUztmZ3zKTG1tcvJy4y8uIpopjZER2RERuiIfqPyfuAAAAAB1d1LamLeyGt9YEBYdYv6rw3e0Fv8AWxSGiph3RMdVcWw2ruTe5didKptTpj0wudfuNs7aLemfaq4/pp7/ALmjOtXWuz5UtPDTsru649ijh+qrhEfbuhAtd933FflxVO67rqkSr1yrxFiTk5EX6zWomxrWpsa1NiId/aPo9tYW1ORkUxTl0xsiI+nbPGUU/MPMN5qt5XdXVc15tc7ZmfujhEYRg40XNZQAAAAAAAAAAAAAAABkrKrKq7s4btkbRtCRWYmY6o6fn3IqS8nLouDo0ZyJsanQm9V2IYzzZzZZ6NZzcXE7IjdGNU8IZnyHyHqHMWoU2lpTtqnfOFMY1VTw+/dCf3I7I60ci7Rg27bsFJmpTKNfcNxRGokxPTCJtcq7eqxPUMTYiefipHvz3z3ea9eTnZ07KY92nCmPXxnFLP0v6Xadytp8W9vG2ue2uud9U+iIwjDys0mENlgAAAAAAAAAAAAAAAAAAAAAACq55xfyuEh4rbP79qgEv/I8fi64hHu3YHeNaA3xwAAAAAAAAAAAAAAAAAAAAAAAABo8c75+bNoW8O7o+T8ACAblEvLK2H4BX58GwwLYAAAAAAAHhdygUTms388HVd4yr6+VE8BbicvD5F/QJ4IzXyhqIE0AAAAAAAAAAAAAAAFVRzhfleo/izsz+HPgS/cjr8UeIj7pZc97V8DfZAAAAAAAA45ePxRun3Nnu9ngUJ15fG+6vdKe76eBdN8FryS3Dq8UVkfAkECTkAAAAAAAAAAAANErng/xRaAvCS9/gymAQd8oZ5ZGzPF9ffeUAC15AAAAAAAAAAKV7jh5NxsiOLRrysF8qspKRswaxXaRD6vVRZK6HNuSAqeb2E8iY+biBv8AHJ955wMz+E+mWUabSPWNPV+XJQ40ursXskau6Dcssqp0Irp6K1P8kDapAAAAAAAAAAAAAAAAAAAAAAAAKtvnMfKuWF4nrU+UNwAShcjn8XeIv/bctf6C4wN+IAAAAAAAAAAAAAAAAAAAAAAAAAAAAAAAAAAAAAAAAAAABjLNnKa0c5LQnbRu6TSLBior6bUmIndElMYYNjQXLuVOlNypsUyjlDm+80W8i4t57Y3xhVHCfp2MI5/5A0/mPTqrS7p2xPbTVG+mrCYn6RO6Wv7nVkrduR93zFsXNAWLKxVc+hV1jVSXnpbHBHsVdzk3ObvRSQvkjnez12zjPyJ2T+KnGmeE+icUSvUvprqHLGozbXMbaZ7aK43Vxxjv4xhLDxmTXbvzpJ0izeaM1J5gZgysSSy9lIiPp1McjmRaw9i7k3KkBFTsneq3J0qc/dX+sFGlUTaWkxNzMds4Uf5uEYb5dX/L98vmZrtdN/fxNNnTPZTunMmP8HGcd0JrpOTlKdKS0hISzJOSkobIUpKQmoyHDhsb1Wta1uCIiImCIcQZ2dXmVzXXMzVM7Zmd8ykvtrbLycuMvLiKaaY2REdkREboiH6T8n7gAAAAAdWdTGpm3sh6A6VlVh1jMCrQ19oaB1sUhIuKd0THV2thtXcm9y7E6VNrdMOmFxr9x4qttNvTPtVcf009/wBzRXWvrbacq2nhp2V3dcexRw/VVwiOGKBi7LsuG+Lhqd03TU4lXrlXiLFnZ2IuKqq7mtRNjWtTY1qbETYh37pGkW9hb05GRTFOXTGyIj6b+Mop9f1+81S8rurqua82udszP07IjCMHHC5LOAAAAAAAAAAAAAAAAMnZTZS3fnJdsnaVoySxY0VUdUak9FSWkpdFwdFiuTcidCb1XYhi3N3N1notnNxcTsiN0Y1Twj6djNuQOQNQ5j1Cm0tKdsz71X4aYxmZ+m3dCf7JLJG0MjbSgW5bUBI89HRr6/X4jU7onphE2ucvQ1PUMTYiefiqx788883mvXk52dOymPdpwpj18ZxS0dMumOncr6fFvbRtrntrrnfXPGe7hGDMhhbY4AAAAAAAAAAAAAAAAAAAAAAAAVXPOL+VwkPFbZ/ftUAl/wCR4/F1xCPduwO8a0BvjgAAAAAAAAAAAAAAAAAAAAAAAADR453z82bQt4d3R8n4AEA3KJeWVsPwCvz4NhgWwAAAAAAAAFF1r4o8W39c2suiRm9R9MzUzBg9XdsZdk+ifuYAWwXLd1uFXOCnoVjQ3o91PoVcko2C44OlLuqsHD6zUAnDAAAAAAAAAAAAAAAqqOcL8r1H8Wdmfw58CX7kdfijxEfdLLnvavgb7IAAAAAAAHHLx+KN0+5s93s8ChOvL433V7pT3fTwLpvgteSW4dXiisj4EggScgAAAAAAAAAAABolc8H+KLQF4SXv8GUwCDvlDPLI2Z4vr77ygAWvIAAAAAAAAABWI85ppqjZbcQnKfUZT5BYVB1IWPKwalOtbgx9dtGOtLjtVd3W7jiyigZO5LLVbAsLVnqK0j12pdopuftsy1xWZKPdg19dtGK9IzGIvqoklORHLhvSF5wFlAAAAAAAAAAAAAAAAAAAAAAAAAVbfOY+VcsLxPWp8obgAlC5HP4u8Rf+25a/0Fxgb8QAAAAAAAAAAAAAAAAAAAAAAAAAAAAAAAAAAAAAAAAAAAABi7NzKO0c57QnLSu2T68OIivpdUYid0yMzhg2LCcu5U6U3KmxTKuT+cLzRLyLi3ntxjCqOE/TsYN1B6fafzJp1Vpd09k9tNUe9TVhMT98bpxRxZO6AazL5jVWPmrEhTFj2xMJ7VQID/8A65s67FXBcYcJEVOui7VXFqbNp0pzn8wmRVptMWG2M/Mjt2/+vj5Z4YbO3uca9OvlLuaNZrq1SYm1yavZiP8A24x5KeOO3s70ssnJylPlJaRkZZknJSbGwpSUhNRkOHDY3qta1rcERERMERDkXOzq8yuaqpmap7Zmd8y79t7fLycuKKIimmmNkRHZERG6IfpPzfsAAAAAB1W1M6nLfyHoKyUmsOs5g1aGvtHQeti2C1cU7omOrtRiLuTe5dibMVNsdMOl1xr9x4qttFvTPtVcf009/wBzRHWzrdacq2ngo2V3lcexRw/VV3cIxQM3XddwXvcFTui6KnFq9cq8RYs9PRVxc5V3IibmtamxrU2ImxDvvSdJt7G3pyMimKcumNkRH038ZRUa9r13qd3Xc3Nc15tc7Zmfp2RGEYOPFyWgAAAAAAAAAAAAAAAAZRyjyiu/Oe7pS0rSk+vEeqPqlUeju5pGX62DosVybkToTeq7EMV5w5ws9Es5uLiezCMap4R9OxnPT7p9qHMmoU2tpT2/iqn3aY4zP3RjPZCf/JXJW0Mj7Rl7ZtiX7bNRUa+u12I1O6Z+YRuCveqbmp6lqbET6qrHtzvzvea7eTn587Ij3acKY4R6ZxS0dNemmncsafFtbRtqntrrn3q54z3cI3QzAYa2IAAAAAAAAAAAAAAAAAAAAAAAAACq55xfyuEh4rbP79qgEv8AyPH4uuIR7t2B3jWgN8cAAAAAAAAAAAAAAAAAAAAAAAAAaPHO+fmzaFvDu6Pk/AAgG5RLyyth+AV+fBsMC2AAAAAAAAApUeNvYEXLPi1cQK1IkHudiZmXFUZSGqYf7vW5n26gr9WHNNUCxB5SDMeDfPBwy5t5I6RpzKm871oM4zHazttTSvQkVOj+TqLQNm0AAAAAAAAAAAAAACow5qDOql5x8ZXUDJ0aJDj0/J6l2xZqzENcevN0ukQ5ubRypvVkxORGL5nVw6AJ9uR1+KPER90sue9q+BvsgAAAAAAAccvH4o3T7mz3ezwKE68vjfdXulPd9PAum+C15Jbh1eKKyPgSCBJyAAAAAAAAAAAAGiVzwf4otAXhJe/wZTAIO+UM8sjZni+vvvKABa8gAAAAAAAAAGr7zZ2jGPqb4YFYzdtqlrUL80g1mBeEosNvWjOt6ZYlLrUNMEVeq2FEhzDvOggVpOgPVbceiDWVp21T2y575nJ65qfUqvIMcrVnaQ6J3LUpRcOiPKRYsP6oF4Ll1f8Aama9gWTmfYlWh16ysw6TT63adahKjoc1TqnKsnJeK1Ux9NDiIoHMwAAAAAAAAAAAAAAAAAAAAAAFW3zmPlXLC8T1qfKG4AJQuRz+LvEX/tuWv9BcYG/EAAAAAAAAAAAAAAAAAAAAAAAAAAAAAAAAAAAAAAAAAAAAAAAAAAAAAAHVPU3qdoGRFCWQkVhVjMKrQ1WiUPrYsl2r2PdEx1dqMRfSt3uXzsVNs9L+l1xr9x469tNtTPtVcf009/fg0N1t632nKtr8OjZXeVx7NHD9VXdwjFA3dN01+9a/U7nuepxavW6vEWLPT0V2LnOXcidCNRNjUTYibEO+9K0q3sbenIyKYpy6Y2REIqdd1271O7rubmua82udszP07I4Rg4+XFaQAAAAAAAAAAAAAAABlTKDKC786LulLUtOUVyuVH1WrPRe5pGXxwdFiuT9xN6rsQxPnHnGz0SznPuJ8kY1Twj6djO+nnTzUeZdQptbWnvqqn3aKeM+iN8z2Qn/yYyYtDJG0Ze2LWluvHiI19crcRE7pn5lG4LEiL0InqWpsan1VI9udedrzXbyc/Pns/DThTHCPTOKWjpt0207ljT4traO2e2uqferq4z6I3RDLph7YQAAAAAAAAAAAAAAAAAAAAAAAAAAFVzzi/lcJDxW2f37VAJf+R4/F1xCPduwO8a0BvjgAAAAAAAAAAAAAAAAAAAAAAAADR453z82bQt4d3R8n4AEA3KJeWVsPwCvz4NhgWwAAAAAAAAFT7zcGSMfKri/Xxe0OTWBSM/bQtS55GP1cGxI8tIrbczt6VSJTMV9FAJu+SL1Ay87l7rW0uT05/v1Aq1Avm25Nztqy9SlH0OeVqL0NfJy+OH2wG+OAAAAAAAAAAAAADFueGblo5BZN5p5337PsplmZS0CrXDcs7EcjWsk6TJRJ2IiKvqnJD6rU6VVEAovNQ+ctyais+c5c+rviui3NnHc9buWtK5Vd1I9ZqMWfViKuOxnbOqnnIBvecjr8UeIj7pZc97V8DfZAAAAAAAA47d6K60roaiYqtOnURP8AhngUJ15oqXhdaKmCpUp7FP8AingXS/BWiNicJXh1uYuKJlHZbV9FlHgtX91AJPAAAAAAAAAAAAA0TOeDY7+6DQE/DsEuS9063n+1dMUCDblDntZxk7Ia5dsWwL7az0e4ILv3kAtfAAAAAAAAAADiN/2NbGZ1i3llvetKh1yz7+pc/Rrpo0ZqOhTVPqUq+TmITkdimDocRUApHOJNosu/h861s+tKt2wYroWXVaj/AHlVmK1USqW1PL3ZSp1qrsXtsrEZ1sNz0cm9AN+jlB+JpLZ96X67oDzMr6Rc2NL0N05lX3RFRY9UsOdmFVITOuuLnU2YiLDVE3Qnw03IoG5SAAAAAAAAAAAAAAAAAAAAAAAq2+cx8q5YXietT5Q3ABKFyOfxd4i/9ty1/oLjA34gAAAAAAAAAAAAAAAAAAAAAAAAAAAAAAAAAAAAAAAAAAAAAAAAAAAAB1P1O6n6DkTQ3U2muhVjMSrQl9pqL1usyWa7YkxMo1cUanqW73L520230u6WXGv5/jr20W1M+1Vx/TT38ZwaC639cLXlW1+Hl7K7yuPZpwp/VV3cIx8iB657nr15V6pXNc1Ti1et1eK6LPT0V3Wc5zuhOhGomxETYibEO+tL0u3srenIyKYpy6Y2REIrNb1u61K6rubmua82udszP03cIwfALgtQAAAAAAAAAAAAAAAAytk9k9d+dV3StqWpK4psfV6u9F7mkZbHB0WK5P8AVbvVdiGJc5c5WeiWc5+fPkjGqeEemcGedO+neo8y6hFra099VU+7THGfRG+ZbAGTWTVoZJ2hK2ta0sjoqo19arb2tSZn5nDBYkRU6PtW7mps88j25050vNcvJz8+ez8NOFMcI9M4paenHTjTuWdPi1tY7d9VU+9XVxn0RuiGWjEGwAAAAAAAAAAAAAAAAAAAAAAAAAAAAFVzzi/lcJDxW2f37VAJf+R4/F1xCPduwO8a0BvjgAAAAAAAAAAAAAAAAAAAAAAAADR453z82bQt4d3R8n4AEA3KJeWVsPwCvz4NhgWwAAAAAAAAGjFzsGlSYuXJTSlrIodNWNGywrFRsi/J5jcVZTrghpU6c56puayZlIzE8+KnmgaxvLaa0JTRfxWsiavctVSlZcZ7dvy7zAmIkTtcvChXG+G2QjxVXYjYM/Cl3Kq7m4gXB4AAAAAAAAAAAAANMbnCOJJI5K6X7W4f+Xlea3M/Uy6DVM14UCL/AC1OsemzSRGQYvUXFq1GbhI1EXfDhP6HIBWgAWD/ACOvxR4iPullz3tXwN9kAAAAAAAD8lQl2zchOyr29ZkzBiQ3t81HsVqp+6BQuZz0KYtfOHNe2Zpiw5q3blrsjMw1TBWxJSqR5dyYecrALibl/rtgXpwbdAFWgREitkbGhUqIuOOD6JUpukORfQWWAmIAAAAAAAAAAAADSF53a3Y83pY0SXTDhYwKHftwyUxGw2NWo2/DisRV8/uRQNbPlULugWrxqNOstHipC+/Ci3vSISquCOfGtebm0b9XuYC3GAAAAAAAAAAAGnNzb3CqmdTenOi68snbdWfzl0vSUSXzSpsrC60zWrCfFdMPi9ViYviUyK90ZN69qfE+1QCvT0Oaxc19BOqPKTVRk1UFlrvyvqTJiPS3ve2Vq9Li/wAjPU6aRip1oM1Ac6G7zMUcm1EAukdD2szJvX3plyx1Q5G1ltSs7MSRZFnKW57HTlGqsJEZO02ca30keWi4scnSmDk7FyKB20AAAAAAAAAAAAAAAAAAAAAAq2+cx8q5YXietT5Q3ABKFyOfxd4i/wDbctf6C4wN+IAAAAAAAAAAAAAAAAAAAAAAAAAAAAAAAAAAAAAAAAAAAAAAAAAAAA6lan9UVDyKorqTSlhVjMarQlWk0hV60OUY5MEmJlE3NT1Ld7l87abe6WdK8/Xs/wCJmbaLame2rj+mn0zg5/64dcrXla2+FlbK7yuPZpwpj81XdwjHyIIbluWu3hXKlcly1OLV63V4ros/PxndZ73u/eRNyImxE2Id8aZpmRZ5FOTk0xTRTGyIhFdrWtXWo3Vdzc1zXm1ztmZx+mEYPhH3rWAAAAAAAAAAAAAAAAMs5OZN3fnXd0ra1qyuDEVr6xWYjXdzSMvjg6JEVP8AVbvVdiGIc586Weh2c5+fP/LTjVPCPTODPunPTnUeZtQi1tY7N9VU+7THGfRG+ZT/AOTuTloZKWjK2rakr2So19YrMRE7pnpjDBYkRyf6rU2NTYR785853muXk5+fP/LThTHCPTOKWnpz0507lnT4tbWO+qqferq4z6I3RDLBiLPgAAAAAAAAAAAAAAAAAAAAAAAAAAAACq55xfyuEh4rbP79qgEv/I8fi64hHu3YHeNaA3xwAAAAAAAAAAAAAAAAAAAAAAAABo8c75+bNoW8O7o+T8ACAblEvLK2H4BX58GwwLYAAAAAAAADorxL9HFD19aGtRmlWsNhQ57M235lll1OK1HJIXHIKlQpUyiru6k3Bh9ZftVVOkCkkuy1rzykzBuKzLokJm0r/wAt6vNU6u05/WgzdOq1Jm3S8Vi7la+FFhKmPmoBcG8A7idULiaaDbCu+tVmFG1BZOQJS1dQlDV6d0rVpGXSHAqnU39qqMFiRkduSJ2xvqQJuAAAAAAAAAAAB0k4g+vTI3hw6Y781M561pktR7agOg2jaUOIxtSuSuxWO7kpkkxy4uiRXp2TsMGMRXu2IBTNazdWedPEH1V5laks2ZiJXcx84KsjqdQJZIkaFISiuSVp9KkYe1e1S8JGQobUTF2GK4uVVUMgcQnQhfPD1zHyhyZzSjPZmjd+XVtXpmBQXNRqUWfuR81MNp2zar5aDDhsiqv/AGnWw2YAbk/I6/FHiI+6WXPe1fA32QAAAAAAAAFI7xdMpZjI/iea7stZiWWVZRszrsmpCErerjJ1eqxazLOROhroM0xyecoFiTyg2eknmjwlqblu6cSNW9PV73NQJ6W62L2SlUjQ7llXKnQipPvan+SoG0yAAAAAAAAAAAAGq7zgmU0fMDhJRr2lJVZiYyWzCtStzD2txWHKTzZu3orlXob1qgzH6gFePwg885PTfxOdEGcNUm0kaJbWYdvy9xTau6rYdNq80lGmnOX7VIU25V85ALtoAAAAAAAAAAAfhqlLp1bplRo1YkYVUpFXgRpWqUyYhtiwJiWjw1hRIURj0VHMe1ytcipgqKBUn8xTwYa/wx9Ss5mdlRQY83o3z7n5mcyxqkNj3wrYqkZzpiYt+ZemPV7VirpRzvTwtm1zHAY24D3Guv7hNZ8xaXdizl56Rs3JqXh50ZewnLEjU6MmEGHXKYx69VJqA3ZEZsSNDTqr2SMVAtt8l86crdRGV1l50ZLXtI5h5ZZgyMGoWndtOjNjS01LRm4ptTa17Vxa9jkRzXIrXIioqAZQAAAAAAAAAAAHz6tVqXQaXUa3W6jApFGo8CLM1WqzMVkCXlpaAxYsSLFiRFRrGMa1Vc5VwRAK73ij82vnTbmt+1qVw7qpS6lpqyDnJqUu6aqskyakM0JxzkgzTnKqNjQJCEjFbKPgvY9zsYiqqK1qBuX8KjiL27xRNItp6pbcypruULKrNzVKrVs1mGjpd1SpyMZMxKZONRqTkn13K1kZGtXrI5qojmqBJGAAAAAFW3zmPlXLC8T1qfKG4AJQuRz+LvEX/tuWv9BcYG/EAAAAAAAAAAAAAAAAAAAAAAAAAAAAAAAAAAAAAAAAAAAAAAAAAAA6qap9SErkJbEvBp0ktSva5WRG27Aex/csFGdi6PFfsReoq7GIuKr5iG2elHTSvmC6ma58ORl7PFxnujy8cPK0N116zZfKljEZdPius2J8ETHsxxqme7CN8+RArcdx1u7a3UrjuOpRavWqtFdGn6hGcrnxHuX9xE3IibETYh39pum5FnkU5OTTFNFMbIiEUusaxdahdVXFxXNebXO2ZnfM/TzPiH3LaAAAAAAAAAAAAAAAAMiZSZdVDN7MWg5cUWpSlPq1bSLFa6Zjw4bmysr1XTEVkNzkfF7W1yKrWIq7U3bzFecubbfRbCq5ztsxHZERjM7o7vKzvp10/veZdTps7bZEz21VTuppjfPf3Ri2F8n8n7QyWtGUtS05TDBGvq9Xeje6Z6ZwwdFiuT/VbuamxCPDnLnK81u8nPuJ8lOFMcI9M4pbunnTvTuWtPi1tae+qqfeqq4z6I3RDKpibPAAAAAAAAAAAAAAAAAAAAAAAAAAAAAABVc84v5XCQ8Vtn9+1QCX/kePxdcQj3bsDvGtAb44AAAAAAAAAAAAAAAAAAAAAAAAA0eOd8/Nm0LeHd0fJ+ABANyiXllbD8Ar8+DYYFsAAAAAAAAAAreebm4RtRynzbTiXZIWy6JldnHMS8lqNpcnB7CiXYrEgwKq9sNOxgVJrUbEcuxI6KqrjEQDXK4TXE/zi4VOqq3s+8uUfcVk1ZsOl51ZWPjrClLlt58VHxIWO1rJmCv8pLRcF6j0wXFrnIoXB+jHWlp7175D2jqH023zL3nYt0QWd1yyOYyo0efRiOjSFRlkcroEzBVcHMdv3tVWqiqHawAAAAAAAABHPxGuKVpH4YWUs3mVqPvyFAr87BirYGUdPiQZi57lmmN7GFJyquRWw+tgj48Tqw2JvXHBFCpw4r3Fp1G8WLPiLmdm7Ofevltaz48vk3klJR4j6RbdPiO39lh2+cjIiLHmHIiuXY1GsRGoGyTytHAjq2Yt3WhxLNWtnOkstLQjtndL2W9Sl8HXBVYLv5OvzMGMn/6OWcmMqip/KxE6/pWJ1g6Dc4X5XqP4s7M/hz4Ev3I6/FHiI+6WXPe1fA32QAAAAAAAAFW5ziGlSdyd4lNu6h6dTlg2hqqtKnTsSeaxUhffDbDGUGeh9bDDrrLw5WIv+WByfk+Ne1I08a2r70lX7Wm0qydX9PloVmxo8VGQIV60DtsaShdlsR05LRo0FPNekNPMAs/AAAAAAAAAAAAA6I8TzTGusfh/atNN0vAbMVnMyy6vAtJjm9bCuScD2ypqpsXb3XLwtoFIRFhVW3KzEgRmRaTXKDNKyLDd1ocaWm5WLgqL0tex7fqKgF0zwZddlA4hvDx0+59StUhTl9ydJl7czmpzXtWNJ3bQYDJGe7Y1Nre6Fa2Zh472RGgSmAAAAAAAAAAADrtqu0r5J608hcwdN+oK0IN55ZZiyjpaqyD0RsxKx2oroE5KRcFWDMy78HwojdqKnSiqihUNcYXg4ageExnnNWvd8pMXxp/vKZjxMks9IEu5slVJRHddJSc6mLZeoQWqiRYSrg707MWrsDJPBp46+o/hL34lCk0jZuaVrsm2xsxch5yacxsF71RsSoUaNE6ySk4jd6Ydri4YPbjg5AtP9B3EZ0mcR7KWRzb0u5nSt2yiQ4f312THcyVuK3pp7UVZapSDnLEhORdiPTFj97HOQDvMAAAAAAAAAxlnDnPlTp+y6ubNvOu/6XlllvZ0u+auS8KxNwpOSloLEx2viqnWcu5rG4ucuxEVQKzrj18yveWvNly6UtGs1UMtdIzYr5a872f2yTr2YLYbsOrEa1UdK0xVTFIGPXi74mCdggRrcEbgzZtcWXUJJyESWnLN0t5bzUvHz1zcSErWNgI5IiUqnPenViT8y1MERMUhNVXu3Ijgt8sncocucgsrbDyXyitWVsjLTLSmStIsy1pNiMgSkjJw0hsanS5y4dZ73Yuc5VcqqqqoGSQAAAAAq2+cx8q5YXietT5Q3ABKFyOfxd4i/wDbctf6C4wN+IAAAAAAAAAAAAAAAAAAAAAAAAAAAAAAAAAAAAAAAAAAAAAAAAAABjXNbKm0s4rQnrQu6SSPKzCK6Qn2oiTElMImDY0FypscnSm5U2KZPylzbeaNeRcW87JjfGFUcJ+nYwvn3kLT+Y9PqtLunbTO6caZwqpnj9k7pa/2duSV3ZHXdHtu5ICx5GOrn0CvsaqS89L47HNVdzk3Oau1F87BSQrkbnmz16zjOyZ2VR71ONM+rhOKJXqb0y1DlfUJtriNtM9tFcbq6eMd/GMGGjNGuAAAAAAAAAAAAAAADEOdmdli5DWNU76vqptk5GSY7uKRRyd0TkdG4thQmrvVeldydJ4zMyminxVbofZYWGbdZ0ZWVG2qWt5d+t7Pq+c/raz+tG7ZzLyqZeziTGWkCRiuZ7XI12Kb/TddEwiIqYPTFHYoWjNsKNRomjOp25VUbJpndMd/o4YN7aBaf6FEVZNX/wD0RMT443xMYR3fe3xOFDxXbE1+WHBs68YsrZ2pmzpRi3jZ6PSHArMCE1GOqVNa9cVY5f8Aawtqw3L0tVFOGurXSW45fz/iZe2u1rn2avy/pq9E4+V370l6tW/MOR8PM2UXVEe1T+b9VPdxjDyJjTTLcwAAAAAAAAAAAAAAAAAAAAAAAAAAAAAAquecX8rhIeK2z+/aoBL/AMjx+LriEe7dgd41oDfHAAAAAAAAAAAAAAAAAAAAAAAAAGjxzvn5s2hbw7uj5PwAIBuUS8srYfgFfnwbDAtgAAAAAAAAAGOc3cpMus+Msb5ybzctOUvnLXMimzNJvK1J6GkWWnZGbhrDexyLtRUxxa5MFa5EcioqIoFS3xx+A9nTwrM0Krfdk0+fzL0YXpPRHZdZpshOjxqC6O9XspNbWE3CFHhp2MKMqIyMiYpg7rNQI8OHvxMtW3DMzah5q6YMwn0OHUHQm3xl1Po+btq5JSG7HtNQklc1rlRMUZFYrYrMexcgFihw8ObK0AarKbQrR1OTTtGudEdsOFPw63EfN2ZOzKojVdKViExO0Ncu5k0xnV3dd28DZ2sXMfL7NCgSV1Za3zSMwLZqLGxJC4KLUZOpycZjkxRWxpKJEYu/zQOZgAAH8ZiYl5WC+Ymo7JaBCTGJHiOaxjU81VcqIgEbGqzjC8NjRfJVCJnxq2tOj16QY533iUqfZcFwRXtT0jafRe6YyOXd2aNTzVA1BOIVzndx1+RruX3DjyYfZsOZSJAh5+3zCgTFRaxcW9tp9El3xIMN/S18zFiefDA0ms5c8c+NV2atUzMzrzBrudWbV6zDWzVeqczMVKoTMWK/CHAgM29RiK7CHBhNRqbmtQDcw4FHKyXZmLVbM1acSy1Y1pZaybpep5daXZtroNVr6oqRoMxX27HS0muxySuyLET0/UbscFiZSKRSqBSqbQqFTZejUSjQIUrSKRKwYcvLSstAhpChQoUKEjWsYxrUa1rURERMEAquecL8r1H8Wdmfw58CX7kdfijxEfdLLnvavgb7IAAAAAAAACBDmLuGfPcSXh93TRsvaQlT1BZAR4t5ZKwGtRY9Qiyss6HUaUxfNnZbFGJ0xWQwKiCg1278s70pNx0CfnbNvuxKlBm6TUoLokpUKZVKbMpFhvavYvhxYUWGi9CoqAWjvBI5lrTzresOy8itXl50zI3WFRpeXp8eqVSPCp9u31FhMSE2ckZqMrYUCbi4YxZWIqdlisNVReq0NqyBHgTMGFMS0ZsxLxmo6DHY5Hse1UxRWubiiovmgf1AAAAAAAAAAAFTFzPfDCrWhXXldOdVlW6+Bpw1cTs7c9k1KBCVJSl3HMRO6KzSXK1OqxzY71mILemHERE9KoHXjgY8abMHhGZ81KYq1NmswNL2bcSWg515ZQIqJMwnwF6kGr0xIqoxJyXa5UVq4JFZ2DlRUa5oWuOkTXNpV12ZaUvNXS5nLSM0Lbn4THzshKzLGValxXNRywKhIRVSPLRW7lbEYnnKqbQO2YAAAAAAAAAAAwPqU0y5G6vcnbuyF1E5dyGZuV97QFg1i3p6H1lhxERe1zEtFbhEgTEJV60OLDcjmruUCsV4yvLI6k9AFQufO3THKVLUhpHY+LNRZuVl1mLrs+WVVd2uqyss3GPAhpsSbgtww2vazpDXg076mc/tJGZ9Gzf055qVnJ/Mi33osrcNImny0R7GuRXQJmEuMOPBdh2cKKxzF6UA3j+HfznEj3FQsveJJk9FbOwWw4EXUFYsBr2RcERvbajQoz29Vy73vlYuHmQkA3ENLXEp0Ja0qPKVbTXqhtLMmPNMa59tQqpBk65AVyY9WNTKh2ibY5OnGGB3hRUVEVFxRdygeQAADA+deqPTfpvoE1c+fmetqZQUOTa58aduCu06mKqN39SHMxWvevnNaqgavevDnCNDWREnWbV0d2rUtW+ZEFIkKRuVzI9v2VLxk2JEdNTcPuuaai7erBgtRyboiAaFXEN4smtrib3r98mpvNSNP2pToz4toZPUlH020qKjlXDueQY9yRIiJs7dHdEir9thsAkO4M3LsamuJvcVAzSzKkZ/ITRzKTDIlZzQnZVYVUuSDDfi+VoEtMInbVcidV009O1M6Ou5OqBagaXNLWRejPJKy9PenSwpTLzLCxpdINLpEs3GNMRnInbZubjO7OPMxnJ1osV6q5y+ciIgdgwAAAAAAVbfOY+VcsLxPWp8obgAlC5HP4u8Rf8AtuWv9BcYG/EAAAAAAAAAAAAAAAAAAAAAAAAAAAAAAAAAAAAAAAAAAAAAAAAAAAAYyzZymtHOS0J20Luk+2wIyK6nVJiIkzJTGGDYsFy7lTpTcqbFMo5R5uvNFvIuLedkxvjCqOE/TsYTz/yDp/MenVWl3TtifdqxpnCYn6RMdktf3OvJS7sj7umLZuaB26Uiq6JQa6xqpLz0t1sEexV3OT1Td6L9ckK5I53s9ds4z8idk/ipxpnhPonFEp1L6aahyvqE21zG2me2iuN1ccY7+MYSw8Zm12AAAAAAAAAAAABh3PDPGw8grGqN835VGScnKtc2nyCOTuidmOri2DCbtVVXpXDYh+WbnU5dPiqnZD7dO07Ou86MrKjbVLV11A6hb/1S37M3RdUd0la0m9zbWtVrnJLy0BF7HsFXBXLvVVxVV+sW/Iy8y4zNtXu4Q3jpmk5GlZHhp7c2feq9EdzHEpKtgtRiNRqJuMqysmKYW+4zvFO1k7LHM6/Mmr8tjM3LG55qzr5s6ahzlvXBJxFhxoEaGuPRsc1ybHNdijkVUVFRT8NU0u3vberIz6Yry642TE4vel6pcWVxTn5FU0ZlE7YmFglwpuKxYWv6wYVq3XElbN1K2dKsW9bLR6Q4NWgw0Ri1Kmo9cXQnLtiwtqw3LhtaqKsePVrpNccvXHxMvbXa1z7NXD9NXfwnFIh0l6s2/MNv8PM2UXVEe1Tx/VT3cYw8iYM003IAAAAAAAAAAAAAAAAAAAAAAAAAAAAAVZ/OFUGuVLi1SExTqLNz8v8A3XWe3t8GWjRWdZJyqYp1mNVMQJeOSHpVUpeXfEEbU6bMU50atWCsJseDEgq5Ekazjh2xExwxA3uAAAAAAAAAAAAAAAAAAAAAAAAABpDc7fTKlU9NOhplOp8eoPh31c6xGQIUSKrUWgQMFVIaLgBAbyjtCrdP4yFhzE/RpqRgJYd9osaNLxoTMVp0JETF7UQC1rAAAAAAAAAAOHZgZe2LmvZdyZc5mWhTr9sO8JWLI3RaFWlIM9T5+UjN6r4UaBMNcxzV89Ni7U2gaKvFD5OiRuCqXJm9wyL2lrbfOOizU1piumaiNkmxHKr1h0WsP66w2ruZBm0VE/75E2AaSWp7Qtq90ZXTNWhqc093PlBU5d7mQZyqUyO2mzSNXDry0/BR8tHYu9HQ4ioBjjKLUhqDyAqTKvkdnfdmUNRY5H9023cFVoyuci4orkkI8JHfVRQJRMvuYo4zWXEtAkqRrouWtycsiJBg1ySoNddgn20WqSMaI7/OeoGbfpTnGy7V2r/FRI7sO2fePZXX+v7WAYuu/mSONNeUGLLzWt+tUSFGRUiJSaLa9MdgvmPlaa1yfUVAI+84eIXrr1ANmIWc+r3MXMWTm+skxS6ld1aiyT2u3tWWbMNg9XzupgB1dt62Ltvqty9FtS36jeFxVOIjZWlU+UmZ+cmIr12I2HLte9zlXzEA2BdDPLB8UXWRNUet3Rlg3SvlXPrDfMX7f6RafOOln7VfK0eGjp2K7D0qPZDav2yAb63C45dPQjw0XUfMCFQnah9SMk1rn523VKy8RKdMYdktGpqdsgSSY+liKsSMn/edAE/QACq95v8AoVbqPF1jzFPo81PQP7tbMb2+DLxorOsj5/FMWNVMQJeOSCpdTplpcQ5KlTo9PWLUcuu1JHgxIXWwlq/jh2xExwxA3ygAAAAAAAAADSJ4+/LBzupa7ry1n8PSmSVLzkuF0aoZv6d3OhSMlc06uMSLUKPFerYUCdirisWA/BkV3ZNc16qjgrxs1coM1sib2rGXWceXlZyuv23YzoNXtWt0+aps9LxYbsFxhzLGLhs2OTYu9FA7p6dOLvxLtKFOk6HkRrOviz7akEa2TtOPVXVmkwWN2IyHJ1xs5Bhtw2YMagHfeW5pXjZS0oyUTVdKRkYmHdESybLfFXz1etMxVQMbXbzJPGnu+HFgzOt+s0SHGxR7aVRLWpq4L0I6WprXJ9RQGibjEa+J3X9o+vzPrWTmHmJZFHzHtR14W1VLpqsSkTFMmaxBlJtkWSZFZLuZ2qK5VarMALi4AAAAAAADp/ro0O5B8QzTneumfUTbXt3Zd2Q0iUusQOpDqdCqsFru5qlT4z2u7VMQHOxRcFRyKrXIrXKgFUvxUOALrd4ZF116tVGzZvO7TX2+I619QFuyMeZk2SiuVYbKvLQe2RJCOibHdfGGq+leoEO+V+cObWR90yt65OZl17Kq8JFU7muW36tPUeeZ1Vxw7dIRIT1THoVcAJgct+ZG40GWVPl6XS9a9YuSTlGoyXS4KPbdeio1qYIjo1Sp8WK/0XOVfPA5/VuaK42NWgOgO1bQqejkw7bKWbZku9PQc2mAdab+483GCzJhR4Fya/L9lpeYRUdBpM7KUBEavQ11Dl5RyfXA3fuTy1iZqaldK+q6yM7c0q5mxmBlpfslVINw3DVZ2sVJKZclEhw4bO3z8SLE7WkamxcGouCKq+aBuEAAAAAAAAekSHDjQ4kKLDbFhRWq2LCciOa5rkwVFRdioqAaznE55XXQlrzm6/mZlHL/AOETUJVliR5m7LbkYMS2qvNvxcr6lREdBho5zl7KLLPhOXe5HqBona5eXE4o+h+ZrFXqeSMbPzK2mrEfCzTy+bHr8r3OxcUiTMjDhtnpbZtXrweqn2ygQdqlzWXW9qT9p3JSIn/8iQnpWMx3+ZEY5FTzlQCQbJnjCcULT/Ly0jlVrnzGoNNk0RsrSJu4JmtSUNqdDZeu92QkT0Ggd4aJzQ3Gwocq2VZq4ZVEYiJ2+es+zJqKuHSrn0zHED+Na5oDjYVqDEgP1e+1iRMf5WStCzZZ6Y+YrKXsA6i5pca3iv5yy8xJ39r2zGmpKaRWzEhTa5EoEB7V9SrKA2SaqeigEdVxXZfuZdddU7suWr3/AHNUHdlUKjOTtVn473ebEmXxYjlX0QJXtFfAV4oGuibpU3lhpsqlj2BUXNWJmverIlr0GHBcqYxIbqgxI8wiJtwl4L1UDeH4ZnKSaQdKM/b+aesKvs1f5xUt0KZk7UjSjpGwqXMswemEhEc6LUHMdudMuSGvTBA21qZS6ZRKdI0ejU6BSKRS4UOBTKXKwYcvLS8CE1GMhwoUJGtYxqIiI1qIiJuA/cAAAAAAABV385JQ61UeKvYcen0ian4CZP2q1Y0GXixWI5Lhr6qmLGqmO0CT3kgaVVKZb3ETSpU2Yp6xp3LbtKR4MSF1urAuLHDtiJjhiBvpgAAAAAAAAAAAAAAAAAAAAAAAAAAAAAAAAAAAAAAAAAAAAAAAAAAAADF+bmUlo5zWhO2jdsmkSFFRX0ypsRO6ZKYRMGxYTl3KnSm5U2KZTyfzfeaJeRcW89uMYVRwn6djB+oPT/T+ZNOqtLqnsn3ao96mcJifvjdO6Wv7nRkxd2SN3zNr3PLrEl4nWiUOtsavc89LdbBHsVdyp6pu9FJC+SedbPXbOM/Int3VU40zwn0TiiU6k9NtQ5Y1Cba5jbE9tNUbq6eMemMJYhMxa9AAAAAAAAAADDGeue1h6fbDqd9X1Umy0tKselNpjXN7pnphG4pChNX6mLtyJ9Q/HPz6cuiaqt0Pv03TM67zoysqNtU/Ttasuf8AqHv7VXfce7bviukbck4jmWvazHOSXlZfrdjsXeq71XDau1cSy5MV3dcVVRspjdDfml6NkaPk+CifFmVR7VXojucGkpaHBRqNbgiJh+4Zbb5UUrPc501PqpswLhD4Zf1K0vzc/wArc0r/AMlb/tfNDK+55qz76s2ahzlv3BKRFhxYMaGu5ehzHJi17HIrXNVUVFRS36tpVvfW9WRn0xXl1xsmJXDSdVuLG4pz8iqaMyidsTCwX4VfFUy/4gGX8O27kfK2bqSs2VYt82Mj0ZBqcJiIxalTUeuLoLl2xIe10Jy4Li3Byx3dWOk1xy9ceOjbXa1z7NXD9NXfwnFIl0m6s2/MVv4K9lF1RHtU8f1U93GMEvRp1uIAAAAAAAAAAAAAAAAAAAAAAAAAAAB8ucodEqMbuioUeVno6IjUjRpeDFf1U3Ji9qrhtA/rI0umUxIjabToFPSNgsVIEGHCRypux7WiY4YgfvAAAAAAAAAAAAAAAAAAAAAAAAAHzqjSKTV2Q4dWpcvVIcFVdBZMQIUdGKqYKqJEa7BQPzSNt27TJhJum0CSp80iK1JmBKwIMRGu3p1obUXBQPtAAAAAAAAAAAABxi77Js3MGhzlsX5aVMva26g1WT9v1eQlalJR2qmCpEgTjIkNyeigEPue/Lw8HrUHMztSuvRdQLSrc+rnR61aMzU7Tidd3qkhUSYgS+OO3/ZbenECNW9OTW4Vtwx4se1r2zVsNsVVVstL3LSJ6FDx6G+2FJiOwTz3L6IGInclBw+1idZup/N1kPH/AGXdFoLs9FaNiBkC2OTD4YVJjQ33Hmxm1dkJi9nAdXrfkkd52MtRsUA7v5TcrnwYMqo0tNxtMk1mfPSyoqTV13RX6k16pu68CWmZWAv82BMFkdo90p6Z5GDIaftOll5OwYLUa2Pb9uUumzLmph6eYl4LYr929z1A7HgAAAD40/blvVSP3VU6DJVGZwRvdEeVgRn9VNydaI1VwQD+9Oo1HpCRUpNKlqWkfBY6S8CFA6/Vxw63amtxwx2YgfSAAAAAAAAAAAHWLUjot0nawKB97WpzT3audVMaxWS0WuUmWmZ2Wav9XnEa2ZgL58KI1QIHs3uUW4QWZU7N1G1LUvfJSYmVVySdt3bFiyTFVcexg3BL1JUTzER6IB1Rm+Si4fEaM98rqbzdk4Kr2MDum0YmH1XUXEDktA5Lbhr06NDfXM8c27ihNVOvBWrWzKdZPMxgUbFAO92QnK5cHXIat0i5oeQtWzZuChRoUzTKjeNz1WpMhzEB6RGPWWkHSMs5Wuaip1oSgbC0OGyFDhwobepDhNRsNibka1MEQD3AAAAAAAA/NOScnUZSYkKhKw56RnGOhzcnGY2LCiw3p1XNex6KjmqmxUVAIdNTvL/8JXVjUKjX8xdIVCti7ao5z5u77PiTdozr4rsVWI5lDiQJd7sVxxfBdj04gRP3lyYPDHrs1Fj2rm5m1Y8CIqqyTh1u3qg1mPQjpyjK7BPPVQODS3JQ8PiFER0xqbzdmoab4SzNosx+q2jYgZvsXk4+E/bMzBmbor2aGYnaVRXSU7dNPkpeJh0PSl0uXiYL/wBV6AToaIeGhop4dFEuaiaQsk5XKr792yjb0rDZ6p1KoVbuDtiy/dMxVJiYe7tfbn9VEwROsuwDvcAAAAAAAAAAAOmWofh26FtWMKYbqJ0o2NmrOTSKkau1CgSTattTDsahKMgzTV89IqAQ15rcpZwccyJiZnKBlnd2T0xMK5yMtm8J/udrl8yDXmVNqInmNwA6hVfkqeHXOR3RKXqLzdo0BV7GXSetSYwTzOtFo2IH6aJyV/DjkIzH1jUDm5XoTV7OCtRtaW6yY7sYNFxQDtzlhyl3Bty8jy81W8rLtzajwFRerct5VFYLnJ5sKhtprVTzlxAl10+8Mvh+aVu5ouQOj+wsualJ9VZa4Ze35ObqzVbtRfbCotmJrFPN7YB3ma1rWo1qI1rUwa1NiIiAeQAAAAAAAAAD48/btv1WMkzVKFJ1KYa1GNjzErAjPRqKqonWiNVcNu4D+1OotHpCRUpNJlqWkfDt6S8CFA6/Vxw63amtxwxXDED6QAAAAAAAAAAAAAAAAAAAAAAAAAAAAAAAAAAAAAAAAAAAAAAAAAAAAAAYszeyhtHOi0Jy0rslOs1+L6VVWIndMjMomDYsJy+Z0puVNimV8nc43miXkXFvPljCqOE/TsYL1D6e6fzLp1VpdR301R71NWEx6Y3TDX+zmyZu/JK75m1rpluvCd1olFrUNF7nnpbrYNiQ1Xcv2zd7V2EhXJXOtnrlnGfkT2/ipxpnhPonFEp1I6cahyzqM2t1HZvpqjdXTxj0xviWIzMGvwAAAAAAADBuoHUFl9pxsCo37f8AU2y8CC1zaRSGuRJmoTKNxbChN2r/AJTsNifWPlvLzLyKJrrnZC6aNo1xf58ZOTG2qfs75aqGf+om/wDVZmJGvS7pp8pb0s5zbVtVrlSXk5fHsURmKp1ulVXFVXpMXorrvM3x1dlMbodFaVoeRo9t8OjtzZ96r0R3OH06AyC1GImGG5DMLXL8MLLeZs1Ttchhb2//AI6C6UrRmP1dB9VL539kK0vzD0Mh5UZrZg5IZhWtmplZdEzZ192bNQ5ugV+UerIkKKxdrXJuex6YtexyK1zVVFRUUt2raRbX1tVkZ9MV5dcbJiVx0jV7mwuac/IqmjMonbEx9PPCwc4V/FRy84geXrKDXnS1makLNlWLf1hI9GQqhDYiMWpU1Hri+A9fTw9roTlwXFMHLHZ1X6T3PLtz46NtdtXPs1cP01d/CcUifSjqxbcxW3hq2UXNEe1Tx/VT3d2CXE0+3AAAAAAAAAAAAAAAAAAAAAAAAAAAAAAAAAAAAAAAAAAAAAAAAAAAAAAAAAAAAAAAAAAAAAAAAAAAAAAAAAAAAAAAAAAAAAAAAAAAAAAAAAAAAAAAAAAAAAAAAAAAAAAAAAAAAAAAAAAAAAAAAAAAAAAAAAAAAAAAAAAAAAAAAAAAAAAAAAAAAAAAAAAAAAAAAAAAAAAAAAAAAAAAADFWcGT9o502hN2ndcrj1kV9Jq7Eb3TIzOGDYsJy/wCs3cqbFMs5N5yvNEvIuMifLGFUcJ9E4MD6idO9P5l06q1uo76ao96mrjHpjdMNf3OPJy78lLumrVuqVxYuL6PWWIvc09L44NiQ1Xp+2bvRdhIXyZznZ65Zxn5E/wDNTjTPCfROKJTqN051HlnUJtbqO+mqPdrp4x6Y3xLExlzAQAAAAAMB6itRuXGmfL6oX5mFVmSzGNeyh0VrmpNVGaRuLYUJq9GOHWcuxPRwRfh1DUcq1y/HmTshedC0G61K4jJyKfFVP2d8tSrP7UlmRqyzDnL1vmadLUGDEVtrWnDc7uWRlkXsWtau9cN69K7V2mu4vM2/zPHX2Uxuh1NpHLdrolt8PK7c2feq490cIcXpkFkFsNEaiIiJgZrY0REbFgvcyanLpZ+3HDzsC/ZTH86l9eCu0uFC3ZkP3dB9WXufK/qm3ArG94l5PagBkbKXNrMPIvMS1s1sqrombOvuzZqHN0Guyr1a+HEYu1r03PhvTFr2ORWuaqoqYFt1fSLa/tqsjPpivLrjZMT9N/CVy0fWLmwuabjIqmjMonbEx9N3GFhBws+Kbl1xBMu4dGrD5azNRtnS0P8AvAy+7YjYc6xqIxalTUevWfLvX07NroTlwXFMHLHX1W6UXPLtz4qdtdtXPs1cP01d/wB6RTpT1XtuYrbw1bKLmiPap4/qp7vuS1GoW3gAAAAAAAAAAAAAAAAAAAAAAAAAAAAAAAAAAAAAAAAAAAAAAAAAAAAAAAAAAAAAAAAAAAAAAAAAAAAAAAAAAAAAAAAAAAAAAAAAAAAAAAAAAAAAAAAAAAAAAAAAAAAAAAAAAAAAAAAAAAAAAAAAAAAAAAAAAAAAAAAAAAAAAAAAAAAAAAAAAAAAAAAAAAAAAAAAAAAAAAAAAAAAAAYoziydtHOu0Ju1LqlcHbX0esMandMjM4YNiQ1X/WbucmxTLeTOc7zQ7yM/In/mpwqjhPonBgPUXp1p/M2nTa3Ud9NUe9RVxj0xumGv5nDk9d+St3TVqXXK7MXPpFXYi9zT0t1sGxYar/rN3tXYpIXybznZ65Zxn5E/81ONM8J9E4olOonTvUOWtQm1uo76ao92qnjHpjfEsUmWsDAAADrtqa1M5b6WMtKnmJmHUWsSE1zKDQGORJupTfV7GFCbtXDHDrOwXqoWvV9XybLInNzJ7I+1f+WeWrrVrum3yI21T5ojjLTv1C6m8x9XmZcxmBfs06WpUFyste1YbnJKSMsjl6iMhqqoi4b12qvSppTO1bN1PPjMzOymN0cP+Ls/QeUrXQLT4OV7WZPvVYz3eR8KjQ2Qk6qJhsQzbTqYiGO6lXMsgSLkXqfvGW2tTEbqHJZZ2P8A0IXvJlZc6H24W1d2O7EuWXC15j6LWrhuPqoiXyTMP6ImCInmHvZ2vEy8lVAABknKLN3MXIjMW1s18qLpmbOvyzZlk1Qq7Kv6r2PavZMe3c+G9MWvY5Fa5qqioWzWNHttQtqre4pivLrjZMT9N/CVz0fWLnT7mm4t6pozKJ2xMfTdxhYRcLbilZccQXLllKqj5azdRVmy0P8AvDy87YjWTbW4MWo03rrjEl4i7XN2uhOXqrimDljr6rdKbnl258VO2u2rn2auH6au/wC9Ir0p6rW3MVt4atlFzRHtU8f1U933JZTUTbgAAAAAAAAAAAAAAAAAAAAAAAAAAAAAAAAAAAAAAAAAAAAAAAAAAAAAAAAAAAAAAAAAAAAAAAAAAAAAAAAAAAAAAAAAAAAAAAAAAAAAAAAAAAAAAAAAAAAAAAAAAAAAAAAAAAAAAAAAAAAAAAAAAAAAAAAAAAAAAAAAAAAAAAAAAAAAAAAAAAAAAAAAAAAAAAAAAAAAAAAAAAAAAAMTZyZOWjnZaE1at0y3ViJ1n0assa3uiRmergkSGq9H2zdyoZdyXzneaHeRn5E/81OFUcJ9E4MA6j9OdP5m06bW6jt301R71FXGPTG6Ya/mb+UF35L3dN2pdkorVaqvpNWYi9zT0tjg2LCcv7rd6LsUkL5O5ys9bs4z7efLGNM8J9eKJTqH081DlrUarW6jvpqj3aqeMemN8SxWZYwQA646ntUGWWlXLioZgZi1NGPRr2W/b0Nze7KlNI3FsOG1VTBuOHWeuxPRwRbTrGs5FjkzmZs7Ij7fIyHlnle71a6jIt6dtU44RHGWmfqY1L5l6tczajmBf9Qeylo5zLWtVjnNlJCTRyrDY1irvw3qu9cV3qc+6tqufqVx8TM7KcI4f8XcnKfKdpoNnGTlRtzJ96rGZ7u5i6iI2F1E9Lgpc9NiIV1KZqZeokCZm3IyWgOjKu5UTZ9fcZ/peVXmT7MbWA6nm0Zcbap2Mq0+3Z1GsfGc2F529U+opnlro+Zs9rsYHeaxlTOyntcplqbCgtTr/wAo5OkvuTZ00d6w517VVPZ2Poo1qbkwPs2PjmqXsFAAAAAAMl5P5wZjZC5j2rmzlPdMzZ1+WbMsmqHXJZ3Vc1zV7JkRq9jEhRG4texyK1zVVFQtms6NbahbVW9xTFeXXGyYn6b+Erno2s3On3NNxb1TRmUTtiY+m7jCwm4XPFHy24g2XDKfPulrN1D2dLQ/7xcuu2IjZlGojFqNO669aJLRHembtdDVeq7FMHLHT1V6VXPLtztjbXbVz7NXD9NXfH2pFulXVW15ittk7KLmiPap4/qp7p+zclfNSNtgAAAAAAAAAAAAAAAAAAAAAAAAAAAAAAAAAAAAAAAAAAAAAAAAAAAAAAAAAAAAAAAAAAAAAAAAAAAAAAAAAAAAAAAAAAAAAAAAAAAAAAAAAAAAAAAAAAAAAAAAAAAAAAAAAAAAAAAAAAAAAAAAAAAAAAAAAAAAAAAAAAAAAAAAAAAAAAAAAAAAAAAAAAAAAAAAAAAAAAAAAAAAAAAxJnNk1aOdtoTVrXRLdWM1HPotaY1O6JGZwwbEhqu9Ptm7nJ9cy/krnW80O8jPyJ7PxU4VRwn0Tg1/1I6b6fzNp02tzHbvpqj3qKuMemN0w1/c3sobvyXu+ctO7JTquYqvpVVYju5p6Xx7GLCcqbfPTei7FJC+TucbPW7OLi3nyxjTPCfp2olOoXT3UeWtQqtbunt301R7tUcY9Mb4nsl0a1QaoctNK2W9Rv2/6mzujqRG23bTIjUm6pNNbikKE1cV6qKqdZ2C4IXXWNYybLJnMzJ2bPt7oWbljli71a7jIyKdszvnCI4y03tQef8AnDrKzJnb/vRsebkoURzLZtqA13clOlVXsGMYiqibN6riq9KqaHus6/1rP8fhmaY3RGDtrl/Q9M5ZtPhU1RFdXvVTPbM93c4zQsnrmn3tWdYylS2H+0cqOcvnYJtRfqGX6X06vs2fb2UUrJqnUSyyo9jbXUzdQsrbapEGH26Cs/Nt2ujvVUTH0E2Kn1DZmlcj2VtTG2PFVxaz1Tni9uKp2T4aeEMgysjKSTOpKyzJdq+mRjUbj6OBlmTbZeXGyiIjyMTz7rMzJ21TM+V+o/Z+AAAAAAAAAAAZNydzizIyCzItXNrKW6Zmzr8s2ZZNUStSz1RUc1eyhxG+liQoidjEhuRWuaqoqFr1rRbbULaq3uKYry642TE/TsnhK6aLrVzp91TcW9U0ZlE7YmPp2xOMLCrhecUPLbiD5bMk5x0vZ2oSzZaEmZGXPbEa2PgiMWo05Hr1okrEdvTa6G5eq7Zg5Y6eqnSu65dutsba7aufZq/w1cJj7d6RbpX1UteYrXZOyi5oj2qf8VPGJ+zdKVk1K20AAAAAAAAAAAAAAAAAAAAAAAAAAAAAAAAAAAAAAAAAAAAAAAAAAAAAAAAAAAAAAAAAAAAAAAAAAAAAAAAAAAAAAAAAAAAAAAAAAAAAAAAAAAAAAAAAAAAAAAAAAAAAAAAAAAAAAAAAAAAAAAAAAAAAAAAAAAAAAAAAAAAAAAAAAAAAAAAAAAAAAAAAAAAAAAAAAAAAAAAAAAAAAADD+dmS9q532ZO2tccu2HONa99v1xG4xpCbVuDYjVTBVbjh1249knn4KmYclc7XmhXkZ+RPZ+KnCqOE+icGvupHTbTuZ9Pm2uo2Tvpqj3qJ4x6Y3SrOuKXpZ1L5c6uriourpr56LKL2zLePJpFS2p+jdZUhRpDtuKK37di9kx2KO27V7k5ao07meKb2Kprpj8H5Z4VRx78d8OHNQ0y85NoqsKaIprnt+J+eMJieHdhul09pVHkKRASXp8oyUgt3NYmGH1d5uKxscq3o8OXEUx3NX3+oZtxX4syZqnvfXPuW8AAAAAAAAAAAAAAAyhkznNmTp+zKtXNzKS6Ziz78s2ZbM0Wsy7sFxTY+FFYvYxIURuLYkNyKjkXBS1a3olrqNrVb3FMV5dcbJifp2TGErromt3WnXVNxb1TTmUTtiY+nbE4wsL+GBxP8tOIRlmyFGdL2dn/Z0vCTMrLZYiJ2xURGe2FP669aJKxXdG10NV6ruhzo6OqfSy65dusa7eufZq/w1cJj7d8JGOlnVO15itcKLiiPap/xU8Yn7N0pUTU7a4AAAAAAAAAAAAAAAAAAAAAAAAAAAAAAAAAAAAAAAAAAAAAAAAAAAAAAAAAAAAAAAAAAAAAAAAAAAAAAAAAAAAAAAAAAAAAAAAAAAAAAAAAAAAAAAAAAAAAAAAAAAAAAAAAAAAAAAAAAAAAAAAAAAAAAAAAAAAAAAAAAAAAAAAAAAAAAAAAAAAAAAAAAAAAAAAAAAAAAAAAAAAAAAOmGuXQ5k5rxyZqWVWadOSVqkqkSYsC/YENi1Gg1NYatZHguXBXQ1XBIsJV6r27FwVEVM25E57vdAvYz8idsT2VUzuqjhPonBhXPfItlr9lORnxsn8NUb6Z4x6YxV0+sLR5nJolzkreTmcdFWVnpRXRrZueA160yuU1Xq2FOScVyJ1muwwc1eyY7FrkRUJIuTOc7LXLKLi2nbGMY0zwn6dqNznPky90K9m2uY7Y3ThVHGPp2OqxljEwAAAAAAAAAAAAAAABlXJTOvMzTxmbaub2UV0zFoX3Z0w2YpFWgOXByIuD4MZi9jEgxG4tiQ3Yo5FwUtOuaHa6la1W9xTFWXXGyY9McJjCV20PXLrTbqm4t6ppzKJ2xPonjE4wsMuGLxOsseIRlixUfL2fn1Z8vCTMzLRYqY9ZERiz8h1160SUiu9FYar1XdCujn6pdLbrl26xqt6p9iv0TwmPt3wkZ6W9UrXmO1wouKI9un0xxifs3SlJNUtqgAAAAAAAAAAAAAAAAAAAAAAAAAAAAAAAAAAAAAAAAAAAAAAAAAAAAAAAAAAAAAAAAAAAAAAAAAAAAAAAAAAAAAAAAAAAAAAAAAAAAAAAAAAAAAAAAAAAAAAAAAAAAAAAAAAAAAAAAAAAAAAAAAAAAAAAAAAAAAAAAAAAAAAAAAAAAAAAAAAAAAAAAAAAAAAAAAAAAAAAAAAAAAAA6V66dDGTuvPJqo5XZnyCSVak0izGX2YECGxajQakrOq2NCcuCuhOXBIsJV6r2+YqIqZvyFz5e8v3sZ+RO2meyqnCqOE9/CcGEc+8h2XMFlORnxsqjtpqxpnjHdxjFXTavNIWcuinOOuZN5y0NZKpSKui27ccFr3U2t05zlSFOScVyJ1mO6Wr2THYtciKhJFydzjZa5ZU3NtVtid8Y0zwn6dqN3nLk290O9m2uY2TG6cKo4xP02bnVwytigAAAAAAAAAAAAAAAAyzkfnhmdpzzPtXODKC6Y9oX1aEw2PS6pAcvVe3H+UgR2L2MWDFb2MSG7Y5FLRruhWupWtVvcUxVl1R2x6Y4TGErvoOvXWmXVNxb1TTmUT2T6J4xOMLDfhl8TXK7iE5XsmJd8C0M9LQgQm5nZYuip12PwRiz0j1160WTiu3LvYvYu6FdHL1Q6XXfLl1snbVb1T7FfonhVH274SNdL+qFpzHabY2U3FMe3R6Y40z9m6UoBqxtMAAAAAAAAAAAAAAAAAAAAAAAAAAAAAAAAAAAAAAAAAAAAAAAAAAAAAAAAAAAAAAAAAAAAAAAAAAAAAAAAAAAAAAAAAAAAAAAAAAAAAAAAAAAAAAAAAAAAAAAAAAAAAAAAAAAAAAAAAAAAAAAAAAAAAAAAAAAAAAAAAAAAAAAAAAAAAAAAAAAAAAAAAAAAAAAAAAAAAAAAAAAAAAAHSTXfoSye17ZNVDLHMuRbT7hkGxZjLrMOBCa6oUGpKzBsWGq4K+E9URIsJVwe3zFRFTOeQefr3l+9jPyZ20z2VU4VR6+E4MG5+5BsuYLKcjPjZVHbTVjTPHycYxV02rbSRnJovzjr+TOc1AdTavTXLEoNfhNe6m1qnOcqQpySiuREfDem9PTNdi1yIqEkXKHOFlrdlTc21W2md8Y0zwmOP370bvOHJ97ol7VbXNOyY3ThVHGJ4fdi6xmUsWAAAAAAAAAAAAAAAAGXcis9c0NN2aNrZw5PXTHtG+rRjpGptSgriyKxdkSBHhr2MWDFb2MSG7YqFn1/QbXU7Sq2uKYqy6o7Y9McJjCV40DX7vTLum5t6vDmUz2T6J4xOMLDrhocTHKziE5XQ52RiQLRzwtKBCbmhle+KnbIMTDqd2yXXXrRZOK70rt7FXqu24KscnU/phd8uXeyfayKp9iv0Twqj7d8JG+mHU+05jtNsbKc+mPbo9McaZ+zdKTk1c2iAAAAAAAAAAAAAAAAAAAAAAAAAAAAAAAAAAAAAAAAAAAAAAAAAAAAAAAAAAAAAAAAAAAAAAAAAAAAAAAAAAAAAAAAAAAAAAAAAAAAAAAAAAAAAAAAAAAAAAAAAAAAAAAAAAAAAAAAAAAAAAAAAAAAAAAAAAAAAAAAAAAAAAAAAAAAAAAAAAAAAAAAAAAAAAAAAAAAAAAAAAAAAAADo7r10GZP6+cm5/LXMeTbTLnpjY0fLfMaDCa6oUGpOZg2IxVwV8F6oiRoSrg5PMciKmd9P8An+95evYzsmdtE+9ThVHr4TgwTqByBZcwWU5GdGyqPdqxpn1cYxV1GrHSdnHozziuDJjOe33UuuUpzolFrcJHup1Zp7nKkKdkorkRHwoiJ6LVxa5EVFQki5R5ustbsqbm2q20zvjGmcYmOP0hG9zfyhe6Je1W1zTsqjdOFUYTE8PpLrQZOxcAAAAAAAAAAAAAAAAZgyHz4zR01ZpWrnHk7dEa075tGOkWnz8JVWHGhrsiS8xDXsYsGK3sYjHbFQs2v6BaanaVW1xT4suqO2PTHCYwleeX+YLvS7um5tqvDmUz9InjE4wsPuGpxLcquITlZDqNMiQbTzrtOBCZmhlc+KixZeLgjFnJPrL1osnFd6V29i9i7bgqxydTumF3y5d+Gr2siqfYr4908Ko+3fCRzpj1OtOY7TxU+zn0+/Rw7440z9m6UmRq9s8AAAAAAAAAAAAAAAAAAAAAAAAAAAAAAAAAAAAAAAAAAAAAAAAAAAAAAAAAAAAAAAAAAAAAAAAAAAAAAAAAAAAAAAAAAAAAAAAAAAAAAAAAAAAAAAAAAAAAAAAAAAAAAAAAAAAAAAAAAAAAAAAAAAAAAAAAAAAAAAAAAAAAAAAAAAAAAAAAAAAAAAAAAAAAAAAAAAAAAAAAAAAAAAHRfXzoIyf195OTuXGYkm2k3ZSmxY+WuZMGE10/Qqi5mCOauxYkB6oiRoKrg5PMciKmedPuoF7y9exnZM7aJ96nCqPXwnBgfUHp/Zcw2U5OdGyuO2mrGmfVxjFXVardKOcejbOG4cmM6LedSK/SHq+k1eGj3U6sSDnKkKdkozkRIkKIiei1cWuRHIqEkXKXNtlrVlTc21W2md8Y0zjExhKN3m7lG90W9qtrmnZVG6cKowmJxj6S62GTMZAAAAAAAAAAAAAAAAGZMg8/M09M2alq5yZOXRGtS+LSjpFkp2EqrCjwlVO2y0xDx6sWBFb2MRjtip5+Cll5g5ftNUtKra5p8WXVH0mOExhK9cvcw3el3dNzbVeHMpnz908YnGFh/wANbiU5VcQjKqFVqTEg2pnPakGEzNHK58VFjSsZURvdcp1l60WTiu9I/e1exdt3xydTumN3y5d+Gr2sir3K+PdPCqP+MJHOmXU205jtPFT7OfT79HDvjjTP2bpSWmsGzgAAAAAAAAAAAAAAAAAAAAAAAAAAAAAAAAAAAAAAAAAAAAAAAAAAAAAAAAAAAAAAAAAAAAAAAAAAAAAAAAAAAAAAAAAAAAAAAAAAAAAAAAAAAAAAAAAAAAAAAAAAAAAAAAAAAAAAAAAAAAAAAAAAAAAAAAAAAAAAAAAAAAAAAAAAAAAAAAAAAAAAAAAAAAAAAAAAAAAAAAAAAAAAAdEtfugTJ/X7k7OZeZhSrKPeNIZFj5aZlwYLXz9DqDm7FRdixJeIqIkaEq4OTamDkRUz7p71BveXr2M7JnbRPvU4VR64wlgXULp9Zcw2U5OdGyuPdqxpn1TjDQizd4Wmu7KLMW68vZzTddV5LbM0+DAuygUWoVWj1GB6aHMSszKwnNcyI1UXBcHN3ORFRUJAtH6r6BeW1OdFxRR4o3VVRFUd0xKP3WOlGv2dzVkzb11+Gd9NMzTPfEwxi7QLrcZ6bSbmCmH/APlKz6wXSOoOhfycr99PrWqenuu/xs39lXqfndoR1ps9NpTzAT/0nWvY56jn7Q/5OV++n1vM8ga5H/1s39lXqfldod1lM9NpYzAT/wBJ1v2Oev8A93ov8nK/fT63meQ9b/jZv7KvU/O/RRrCh+n0uX+n/pKuf9Ese4540af/ALOV++n1vE8ja1/Gzf2Vep+Z2jPVyz02mG/k/wDSVd9jHqOddH/kZX76fWpPJOs/x839lXqfnfo+1YQ8e2aZ79ZhvxtKu+xT1HOekfyMr99PreJ5M1eP/r5v7KvU/G/Sbqkh49s0430zDfjaddT/AOVPcc36VP8A78v99PreJ5Q1aP8A6+Z+yr1PyP0u6lof+0093uz0bVrnsY9xzXpc/wDvy/30+t4nlTVI/wDRmfsq9T8b9NuomH/tMhbzZ6Nr1tP/AJY/SOZtNn/3Zf76fW/OeWdSj/05n7KvU/I7T3n4z0+R93t9G2q0n78sev8A9Hp/9bL/AHU+t5nlzUP6OZ+2r1P4OyGzyZ6fJi7G+jbtYT9+XPX/AOgsP6tH7qfW8zy/f/0q/wBtXqfwdkfnS302UF0N9G36sn/kHqNdsf6tH7o9bz/oN9/Sr/bPqfwdkznAz0+VNys9GhVRP34B6jW7L+rR+6PW8/6Je/0q/wBs+p+d2UmazPT5ZXC3DzaLUk/fgnr/AFi0/qU/uj1vM6Pd/wBOr9s+p/B2V2ZjPTZdV1vo0ioJ+/CPX+q2v9Sn90et5nSbr+nV+2fUy/kFfOpbS/mra2cmT1Mr9pXvakZIkpNMpk/2mZgqqdtlpmEsNGxYEVqdV7HbFTzFwUs3MNhpeq2lVtczTVl1d8dnfHCYwleeXr/VNKu6bm3iqnMp7p7e6eMTjCwp4dnEBszXflLBuBtEmMv83rXhQYWaGWU5CjwYsnMOTq90yjo7WLGlIypix6bWr2LsFTbHT1I6eZ+gXng2xXk1e5XGMcJ4TGPnhIv046hZGv2fj2TRnU+/ROE8Y4xOHmlIaa5bFAAAAAAAAAAAAAAAAAAAAAAAAAAAAAAAAAAAAAAAAAAAAAAAAAAAAAAAAAAAAAAAAAAAAAAAAAAAAAAAAAAAAAAAAAAAAAAAAAAAAAAAAAAAAAAAAAAAAAAAAAAAAAAAAAAAAAAAAAAAAAAAAAAAAAAAAAAAAAAAAAAAAAAAAAAAAAAAAAAAAAAAAAAAAAAAAAAAAAAAAAAAAAAAAAAAAAAAAAAPGCeYB46jPtE+shXaPHaoa74bV+og2ypsevaYK/8AYt/0UHik2Q8dzy674DF/zW/YK+KTww8LKyq75aGv+Y37A8cqeGHqsnJrvlYa4/8AUb9geOeJ4IfzWm053ppCA70YUNf+gr8Wrip8Ong9oEhIyz1iy0nCl4jkwdEZDYxypvwxaiCrMqnfKtNFMbofrPD0AAAAAAAAAAAAAAAAAAAAAAAAAAAAAAAAAAAAAAAAAAAAAAAAAAAAAAAAAAAAAAAAAAAAAAAAAAAAAAAAAAAAAAAAAAAAAAAAAAAAAAAAAAAAAAAAAAAAAAAAAAAAAAAAAAAAAAAAAAAAAAAAAAAAAAAAAAAAAAAAAAAAAAAAAAAAAAAAAAAAAAAAAAAAAAAAAAAAAAAAAAAAAAAAAAAAAAAAAAAAAAAAAAAAAAAAAAAAAAAAAAAAAAAAAAAAAAAAAAAAAAAAAAAAAAAAAAAAAAAAAAAAAAAAAAAAAAAAAAAAAAAAAAAAAAAAAAAAAAAAAAAAAAAAAAAAAAAAAAAAAAAAAAAAAAAAAAAAAAAAAAAAAAAAAAAAAAAAAAAAAAAAAAAAAAAAAAAAAAAAAAAAAAAAAAAAAAAAAAAAAAAAAAAAAAAAAAAAAAAAAAAAAAAAAAAAAAAAAAAAAAAAAAAAAAAAAAAAAAAAAAAAAAAAAAAAAAAAAAAAAAAAAAAAAAAAAAAAAAAAAAAAAAAAAAAAAAAAAAAAAAAAAAAAAAAAAAAAAAAAAAAAAAAAAAAAAAAAAAAAAAAAAAAAAAAAAAAAAAAAAAAAAAAAAAAAAAAAAAAAAAAAAAAAAAAAAAAAAAAAAAAAAAAAAAAAAAAAAAAAAAAAAAAAAAAAAAAAAAAAAAAAAAAAAAAAAAAAAAAAAAAAAAAAAAAAAAAAAAAAAAAAAAAAAAAAAAAAAAAAAAAAAAAAAAAAAAAAAAAAAAAAAAAAAAAAAAAAAAAAAAAAAAAAAAAAAAAAAAAAAAAAAAAAAAAAAAAAAAAAAAAAAAAAAAAAAAAAAAAAAAAAAAAAAAAAAAAAAAAAAAAAAAAAAAAAAAAAAAAAAAAAAAAAAAAAAAAAAAAAAAAAAAAAAAAAAAAAAAAAAAAAAAAAAAAAAAAAAAAAAAAAAAAAAAAAAAAAAAAAAAAAAAAAAAAAAAAAAAAAAAAAAAAAAAAAAAAAAAAAAAAAAAAAAAAAAAAAAAAAAAAAAAAAAAAAAAAAAAAAAAAAAAAAAAAAAAAAAAAAAAAAAAAAAAAAAAAAAAAAAAAAAAAAAAAAAAAAAAAAAAAAAAAAAAAAAAAAAAAAAAAAAAAAAAAAAAAAAAAAAAAAAAAAAAAAAAAAAAAAAAAAAAAAAAAAAAAAAAAAAAAAAAAAAAAAAAAAAAAAAAAAAAAAAAAAAAAAAAAAAAAAAAAAAAAAAAAAAAAAAAAAAAAAAAAAAAAAAAAAAAAAAAAAAAAAAAAAAAAAAAAAAAAAAAAAAAAAAAAAAAAAAAAAAAAAAAAAAAAAAAAAAAAAAAAAAAAAAAAAAAAAAAAAAAAAAAAAAAAAAAAAAAAAAAAAAAAAAAAAAAAAAAAAAAAAAAAAAAAAAAAAAAAAAAAAAAAAAAAAAAAAAAAAAAAAAAAAAAAAAAAAAAAAAAAAAAAAAAAAAAAAAAAAAAAAAAAAAAAAAAAAAAAAAAAAAAAAAAAAAAAAAAAAAAAAAAAAAAAAAAAAAAAAAAAAAAAAAAAAAAAAAAAAAAAAAAAAAAAAAAAAAAAAAAAAAAAAAAAAAAAAAAAAAAAAAAAAAAAAAAAAAAAAAAAAAAAAAAAAAAAAAAAAAAAAAAAAAAAAAAAAAAAAAAAAAAAAAAAAAAAAAAAAAAAAAAAAAAAAAAAAAAAAAAAAAAAAAAAAAAAAAAAAAAAAAAAAAAAAAAAAAAAAAAAAAAAAAAAAAAAAAAAAAAAAAAAAAAAAAAAAAAAAAAAAAAAAAAAAAAAAAAAAAAAAAAAAAAAAAAAAAAAAAAAAAAAAAAAAAAAAAAAAAAAAAAAAAAAAAAAAAAAAAAAAAAAAAAAAAAAAAAAAAAAAAAAAAAAAAAAAAAAAAAAAAAAAAAAAAAAAAAAAAAAAAAAAAAAAAAAAAAAAAAAAAAAAAAAAAAAAAAAAAAAAAAAAAAAAAAAAAAAAAAAAAAAAAAAAAAAAAAAAAAAAAAAAAAAAAAAAAAAAAAAAAAAAAAAAAAAAAAAAAAAAAAAAAAAAAAAAAAAAAAAAAAAAAAAAAAAAAAAAAAAAAAAAAAAAAAAAAAAAAAAAAAAAAAAAAAAAAAAAAAAAAAAAAAAAAAAAAAAAAAAAAAAAAAAAAAAAAAAAAAAAAAAAAAAAAAAAAAAAAAAAAAAAAAAAAAAAAAAAAAAAAAAAAAAAAAAAAAAAAAAAAAAAAAAAAAAAAAAAAAAAAAAAAAAAAAAAAAAAAAAAAAAAAAAAAAAAAAAAAAAAAAAAAAAAAAAAAAAAAAAAAAAAAAAAAAAAAAAAAAAAAAAAAAAAAAAAAAAAAAAAAAAAAAAAAAAAAAAAAAAAAAAAAAAAAAAAAAAAAAAAAAAAAAAAAAAAAAAAAAAAAAAAAAAAAAAAAAAAAAAAAAAAAAAAAAAAAAAAAAAAAAAAAAAAAAAAAAAAAAAAAAAAAAAAAAAAAAP/2Q==" vertex="1" parent="1">
          <mxGeometry x="390" y="480" width="360.33" height="140" as="geometry" />
        </mxCell>
      </root>
    </mxGraphModel>
  </diagram>
</mxfile>
